<svg xmlns="http://www.w3.org/2000/svg" xmlns:xlink="http://www.w3.org/1999/xlink" contentStyleType="text/css" data-diagram-type="CLASS" height="282px" preserveAspectRatio="none" style="width:316px;height:282px;background:#FFFFFF;" version="1.1" viewBox="0 0 316 282" width="316px" zoomAndPan="magnify"><defs/><g><!--class Vaccine--><g class="entity" data-entity="Vaccine" data-source-line="4" data-uid="ent0002" id="entity_Vaccine"><rect fill="#F1F1F1" height="103.8633" rx="2.5" ry="2.5" style="stroke:#181818;stroke-width:0.5;" width="99.1445" x="98" y="7"/><ellipse cx="120.8021" cy="23" fill="#ADD1B2" rx="11" ry="11" style="stroke:#181818;stroke-width:1;"/><path d="M123.5677,18.875 Q123.7239,18.6563 123.9114,18.5469 Q124.0989,18.4375 124.3177,18.4375 Q124.6927,18.4375 124.9271,18.7031 Q125.1614,18.9531 125.1614,19.5625 L125.1614,21.0156 Q125.1614,21.625 124.9271,21.8906 Q124.6927,22.1563 124.3177,22.1563 Q123.9739,22.1563 123.7708,21.9531 Q123.5677,21.7656 123.4583,21.25 Q123.4114,20.8906 123.2239,20.7031 Q122.8958,20.3281 122.2864,20.1094 Q121.6771,19.8906 121.0521,19.8906 Q120.2864,19.8906 119.6458,20.2188 Q119.0208,20.5469 118.5208,21.2969 Q118.0364,22.0469 118.0364,23.0781 L118.0364,24.1719 Q118.0364,25.4063 118.9271,26.2344 Q119.8177,27.0469 121.4114,27.0469 Q122.3489,27.0469 123.0052,26.7969 Q123.3958,26.6406 123.8177,26.2031 Q124.0833,25.9375 124.2239,25.8594 Q124.3802,25.7813 124.5833,25.7813 Q124.9114,25.7813 125.1614,26.0469 Q125.4271,26.2969 125.4271,26.6406 Q125.4271,26.9844 125.0833,27.3906 Q124.5833,27.9688 123.7864,28.2969 Q122.7083,28.75 121.4114,28.75 Q119.8958,28.75 118.6927,28.125 Q117.7083,27.625 117.0208,26.5625 Q116.3333,25.4844 116.3333,24.2031 L116.3333,23.0469 Q116.3333,21.7188 116.9427,20.5781 Q117.5677,19.4219 118.6614,18.8125 Q119.7552,18.1875 120.9896,18.1875 Q121.7239,18.1875 122.3646,18.3594 Q123.0208,18.5156 123.5677,18.875 Z " fill="#000000"/><text fill="#000000" font-family="sans-serif" font-size="14" lengthAdjust="spacing" textLength="49.8066" x="136.5358" y="28.7969">Vaccine</text><line style="stroke:#181818;stroke-width:0.5;" x1="99" x2="196.1445" y1="39" y2="39"/><text fill="#000000" font-family="sans-serif" font-size="14" lengthAdjust="spacing" textLength="35.0205" x="104" y="58.1074">-code</text><text fill="#000000" font-family="sans-serif" font-size="14" lengthAdjust="spacing" textLength="39.6826" x="104" y="76.7285">-name</text><text fill="#000000" font-family="sans-serif" font-size="14" lengthAdjust="spacing" textLength="87.1445" x="104" y="95.3496">-manufacturer</text><line style="stroke:#181818;stroke-width:0.5;" x1="99" x2="196.1445" y1="102.8633" y2="102.8633"/></g><!--class VaccineType--><g class="entity" data-entity="VaccineType" data-source-line="10" data-uid="ent0003" id="entity_VaccineType"><rect fill="#F1F1F1" height="85.2422" rx="2.5" ry="2.5" style="stroke:#181818;stroke-width:0.5;" width="112.9307" x="7" y="190"/><ellipse cx="22" cy="206" fill="#ADD1B2" rx="11" ry="11" style="stroke:#181818;stroke-width:1;"/><path d="M24.7656,201.875 Q24.9219,201.6563 25.1094,201.5469 Q25.2969,201.4375 25.5156,201.4375 Q25.8906,201.4375 26.125,201.7031 Q26.3594,201.9531 26.3594,202.5625 L26.3594,204.0156 Q26.3594,204.625 26.125,204.8906 Q25.8906,205.1563 25.5156,205.1563 Q25.1719,205.1563 24.9688,204.9531 Q24.7656,204.7656 24.6563,204.25 Q24.6094,203.8906 24.4219,203.7031 Q24.0938,203.3281 23.4844,203.1094 Q22.875,202.8906 22.25,202.8906 Q21.4844,202.8906 20.8438,203.2188 Q20.2188,203.5469 19.7188,204.2969 Q19.2344,205.0469 19.2344,206.0781 L19.2344,207.1719 Q19.2344,208.4063 20.125,209.2344 Q21.0156,210.0469 22.6094,210.0469 Q23.5469,210.0469 24.2031,209.7969 Q24.5938,209.6406 25.0156,209.2031 Q25.2813,208.9375 25.4219,208.8594 Q25.5781,208.7813 25.7813,208.7813 Q26.1094,208.7813 26.3594,209.0469 Q26.625,209.2969 26.625,209.6406 Q26.625,209.9844 26.2813,210.3906 Q25.7813,210.9688 24.9844,211.2969 Q23.9063,211.75 22.6094,211.75 Q21.0938,211.75 19.8906,211.125 Q18.9063,210.625 18.2188,209.5625 Q17.5313,208.4844 17.5313,207.2031 L17.5313,206.0469 Q17.5313,204.7188 18.1406,203.5781 Q18.7656,202.4219 19.8594,201.8125 Q20.9531,201.1875 22.1875,201.1875 Q22.9219,201.1875 23.5625,201.3594 Q24.2188,201.5156 24.7656,201.875 Z " fill="#000000"/><text fill="#000000" font-family="sans-serif" font-size="14" lengthAdjust="spacing" textLength="80.9307" x="36" y="211.7969">VaccineType</text><line style="stroke:#181818;stroke-width:0.5;" x1="8" x2="118.9307" y1="222" y2="222"/><text fill="#000000" font-family="sans-serif" font-size="14" lengthAdjust="spacing" textLength="35.0205" x="13" y="241.1074">-code</text><text fill="#000000" font-family="sans-serif" font-size="14" lengthAdjust="spacing" textLength="72.3652" x="13" y="259.7285">-description</text><line style="stroke:#181818;stroke-width:0.5;" x1="8" x2="118.9307" y1="267.2422" y2="267.2422"/></g><!--class VaccineTechnology--><g class="entity" data-entity="VaccineTechnology" data-source-line="15" data-uid="ent0004" id="entity_VaccineTechnology"><rect fill="#F1F1F1" height="66.6211" rx="2.5" ry="2.5" style="stroke:#181818;stroke-width:0.5;" width="154.1855" x="155.5" y="199"/><ellipse cx="170.5" cy="215" fill="#ADD1B2" rx="11" ry="11" style="stroke:#181818;stroke-width:1;"/><path d="M173.2656,210.875 Q173.4219,210.6563 173.6094,210.5469 Q173.7969,210.4375 174.0156,210.4375 Q174.3906,210.4375 174.625,210.7031 Q174.8594,210.9531 174.8594,211.5625 L174.8594,213.0156 Q174.8594,213.625 174.625,213.8906 Q174.3906,214.1563 174.0156,214.1563 Q173.6719,214.1563 173.4688,213.9531 Q173.2656,213.7656 173.1563,213.25 Q173.1094,212.8906 172.9219,212.7031 Q172.5938,212.3281 171.9844,212.1094 Q171.375,211.8906 170.75,211.8906 Q169.9844,211.8906 169.3438,212.2188 Q168.7188,212.5469 168.2188,213.2969 Q167.7344,214.0469 167.7344,215.0781 L167.7344,216.1719 Q167.7344,217.4063 168.625,218.2344 Q169.5156,219.0469 171.1094,219.0469 Q172.0469,219.0469 172.7031,218.7969 Q173.0938,218.6406 173.5156,218.2031 Q173.7813,217.9375 173.9219,217.8594 Q174.0781,217.7813 174.2813,217.7813 Q174.6094,217.7813 174.8594,218.0469 Q175.125,218.2969 175.125,218.6406 Q175.125,218.9844 174.7813,219.3906 Q174.2813,219.9688 173.4844,220.2969 Q172.4063,220.75 171.1094,220.75 Q169.5938,220.75 168.3906,220.125 Q167.4063,219.625 166.7188,218.5625 Q166.0313,217.4844 166.0313,216.2031 L166.0313,215.0469 Q166.0313,213.7188 166.6406,212.5781 Q167.2656,211.4219 168.3594,210.8125 Q169.4531,210.1875 170.6875,210.1875 Q171.4219,210.1875 172.0625,210.3594 Q172.7188,210.5156 173.2656,210.875 Z " fill="#000000"/><text fill="#000000" font-family="sans-serif" font-size="14" lengthAdjust="spacing" textLength="122.1855" x="184.5" y="220.7969">VaccineTechnology</text><line style="stroke:#181818;stroke-width:0.5;" x1="156.5" x2="308.6855" y1="231" y2="231"/><text fill="#000000" font-family="sans-serif" font-size="14" lengthAdjust="spacing" textLength="72.3652" x="161.5" y="250.1074">-description</text><line style="stroke:#181818;stroke-width:0.5;" x1="156.5" x2="308.6855" y1="257.6211" y2="257.6211"/></g><!--link Vaccine to VaccineType--><g class="link" data-entity-1="Vaccine" data-entity-2="VaccineType" data-source-line="19" data-uid="lnk5" id="link_Vaccine_VaccineType"><path codeLine="19" d="M122.3,111.46 C110.02,136.52 95.46,166.26 83.89,189.86" fill="none" id="Vaccine-VaccineType" style="stroke:#181818;stroke-width:1;"/><text fill="#000000" font-family="sans-serif" font-size="13" lengthAdjust="spacing" textLength="20.96" x="106.5" y="156.0283">has</text><text fill="#000000" font-family="sans-serif" font-size="13" lengthAdjust="spacing" textLength="7.23" x="111.8074" y="132.9439">1</text><text fill="#000000" font-family="sans-serif" font-size="13" lengthAdjust="spacing" textLength="7.23" x="79.6057" y="178.7418">1</text></g><!--link Vaccine to VaccineTechnology--><g class="link" data-entity-1="Vaccine" data-entity-2="VaccineTechnology" data-source-line="20" data-uid="lnk6" id="link_Vaccine_VaccineTechnology"><path codeLine="20" d="M173,111.46 C187.09,139.87 204.15,174.3 216.39,198.99" fill="none" id="Vaccine-VaccineTechnology" style="stroke:#181818;stroke-width:1;"/><text fill="#000000" font-family="sans-serif" font-size="13" lengthAdjust="spacing" textLength="27.46" x="195.5" y="156.0283">uses</text><text fill="#000000" font-family="sans-serif" font-size="13" lengthAdjust="spacing" textLength="7.23" x="168.6865" y="132.9439">1</text><text fill="#000000" font-family="sans-serif" font-size="13" lengthAdjust="spacing" textLength="7.23" x="205.5337" y="187.8135">1</text></g><!--SRC=[VOuz2y9038Rt-nMXYzE9NRi98ZWu-R77DDh3- -9oDrJnlmjLKLfmoWjvdkITmTfORk2mgskzsivZSLR9rVY82HsGHP5bpicSIkOD1RypDuQ5KiC6ZaXaFCDT0MYWqF8GFBfNSEZB6IcNn4azHjQ-ZnEpPQ5aOZR1JtccpWSRBltR6i6VCbLTWTR3-FtKG8Vo3_gURw08Yte2]--></g></svg>