<svg xmlns="http://www.w3.org/2000/svg" xmlns:xlink="http://www.w3.org/1999/xlink" contentStyleType="text/css" data-diagram-type="SEQUENCE" height="329px" preserveAspectRatio="none" style="width:402px;height:329px;background:#FFFFFF;" version="1.1" viewBox="0 0 402 329" width="402px" zoomAndPan="magnify"><defs/><g><g><title>.Administrator</title><rect fill="#FFFFFF" height="134.4551" style="stroke:#181818;stroke-width:1;" width="10" x="46.1792" y="93.6211"/></g><g><title>.System</title><rect fill="#FFFFFF" height="48.582" style="stroke:#181818;stroke-width:1;" width="10" x="359.5024" y="116.9121"/></g><g><title>.System</title><rect fill="#FFFFFF" height="31.291" style="stroke:#181818;stroke-width:1;" width="10" x="359.5024" y="196.7852"/></g><g><title>.Administrator</title><rect fill="#000000" fill-opacity="0.00000" height="162.4551" width="8" x="47.1792" y="83.6211"/><line style="stroke:#181818;stroke-width:0.5;stroke-dasharray:5,5;" x1="51" x2="51" y1="83.6211" y2="246.0762"/></g><g><title>.System</title><rect fill="#000000" fill-opacity="0.00000" height="162.4551" width="8" x="360.5024" y="83.6211"/><line style="stroke:#181818;stroke-width:0.5;stroke-dasharray:5,5;" x1="364.2197" x2="364.2197" y1="83.6211" y2="246.0762"/></g><g class="participant participant-head" data-participant="ADM"><text fill="#000000" font-family="sans-serif" font-size="14" lengthAdjust="spacing" textLength="86.3584" x="5" y="80.1074">:Administrator</text><ellipse cx="51.1792" cy="13.5" fill="#E2E2F0" rx="8" ry="8" style="stroke:#181818;stroke-width:0.5;"/><path d="M51.1792,21.5 L51.1792,48.5 M38.1792,29.5 L64.1792,29.5 M51.1792,48.5 L38.1792,63.5 M51.1792,48.5 L64.1792,63.5" fill="none" style="stroke:#181818;stroke-width:0.5;"/></g><g class="participant participant-tail" data-participant="ADM"><text fill="#000000" font-family="sans-serif" font-size="14" lengthAdjust="spacing" textLength="86.3584" x="5" y="260.1836">:Administrator</text><ellipse cx="51.1792" cy="272.1973" fill="#E2E2F0" rx="8" ry="8" style="stroke:#181818;stroke-width:0.5;"/><path d="M51.1792,280.1973 L51.1792,307.1973 M38.1792,288.1973 L64.1792,288.1973 M51.1792,307.1973 L38.1792,322.1973 M51.1792,307.1973 L64.1792,322.1973" fill="none" style="stroke:#181818;stroke-width:0.5;"/></g><g class="participant participant-head" data-participant="SYS"><rect fill="#E2E2F0" height="32.6211" rx="2.5" ry="2.5" style="stroke:#181818;stroke-width:0.5;" width="64.5654" x="332.2197" y="50"/><text fill="#000000" font-family="sans-serif" font-size="14" lengthAdjust="spacing" textLength="50.5654" x="339.2197" y="72.1074">:System</text></g><g class="participant participant-tail" data-participant="SYS"><rect fill="#E2E2F0" height="32.6211" rx="2.5" ry="2.5" style="stroke:#181818;stroke-width:0.5;" width="64.5654" x="332.2197" y="245.0762"/><text fill="#000000" font-family="sans-serif" font-size="14" lengthAdjust="spacing" textLength="50.5654" x="339.2197" y="267.1836">:System</text></g><g><title>.Administrator</title><rect fill="#FFFFFF" height="134.4551" style="stroke:#181818;stroke-width:1;" width="10" x="46.1792" y="93.6211"/></g><g><title>.System</title><rect fill="#FFFFFF" height="48.582" style="stroke:#181818;stroke-width:1;" width="10" x="359.5024" y="116.9121"/></g><g><title>.System</title><rect fill="#FFFFFF" height="31.291" style="stroke:#181818;stroke-width:1;" width="10" x="359.5024" y="196.7852"/></g><g class="message" data-participant-1="ADM" data-participant-2="SYS"><polygon fill="#181818" points="347.5024,112.9121,357.5024,116.9121,347.5024,120.9121,351.5024,116.9121" style="stroke:#181818;stroke-width:1;"/><line style="stroke:#181818;stroke-width:1;" x1="56.1792" x2="353.5024" y1="116.9121" y2="116.9121"/><text fill="#000000" font-family="sans-serif" font-size="13" font-weight="bold" lengthAdjust="spacing" textLength="7.23" x="63.1792" y="111.6494">1</text><text fill="#000000" font-family="sans-serif" font-size="13" lengthAdjust="spacing" textLength="138.728" x="74.4092" y="111.6494">initiates register vaccine</text></g><g class="message" data-participant-1="SYS" data-participant-2="ADM"><polygon fill="#181818" points="67.1792,161.4941,57.1792,165.4941,67.1792,169.4941,63.1792,165.4941" style="stroke:#181818;stroke-width:1;"/><line style="stroke:#181818;stroke-width:1;stroke-dasharray:2,2;" x1="61.1792" x2="363.5024" y1="165.4941" y2="165.4941"/><text fill="#000000" font-family="sans-serif" font-size="13" font-weight="bold" lengthAdjust="spacing" textLength="7.23" x="73.1792" y="151.5859">2</text><text fill="#000000" font-family="sans-serif" font-size="13" lengthAdjust="spacing" textLength="268.0933" x="84.4092" y="142.9404">requests data (code, name, manufacturer) and</text><text fill="#000000" font-family="sans-serif" font-size="13" lengthAdjust="spacing" textLength="261.5869" x="84.4092" y="160.2314">shows lists of vaccine types and technologies</text></g><g class="message" data-participant-1="ADM" data-participant-2="SYS"><polygon fill="#181818" points="347.5024,192.7852,357.5024,196.7852,347.5024,200.7852,351.5024,196.7852" style="stroke:#181818;stroke-width:1;"/><line style="stroke:#181818;stroke-width:1;" x1="56.1792" x2="353.5024" y1="196.7852" y2="196.7852"/><text fill="#000000" font-family="sans-serif" font-size="13" font-weight="bold" lengthAdjust="spacing" textLength="7.23" x="63.1792" y="191.5225">3</text><text fill="#000000" font-family="sans-serif" font-size="13" lengthAdjust="spacing" textLength="254.395" x="74.4092" y="191.5225">enters data and selects type and technology</text></g><g class="message" data-participant-1="SYS" data-participant-2="ADM"><polygon fill="#181818" points="62.1792,224.0762,52.1792,228.0762,62.1792,232.0762,58.1792,228.0762" style="stroke:#181818;stroke-width:1;"/><line style="stroke:#181818;stroke-width:1;stroke-dasharray:2,2;" x1="56.1792" x2="363.5024" y1="228.0762" y2="228.0762"/><text fill="#000000" font-family="sans-serif" font-size="13" font-weight="bold" lengthAdjust="spacing" textLength="7.23" x="68.1792" y="222.8135">4</text><text fill="#000000" font-family="sans-serif" font-size="13" lengthAdjust="spacing" textLength="169.7871" x="79.4092" y="222.8135">informs operation (in)success</text></g><!--SRC=[VP0nQmCn38Lt_mgHfGdq2bblA0H2jqocGw6BwjCbWhDyjUoK-_ULGqjx53h88FI-znw-WoUUg8TdlzzttXyVvXedXxKagV6DiiDGKePDVnWY2sl9QFi6KE5mF3atOouSU4Of9lAB5egtgt_nhi5ynK8thGrqZ-tGWraLjeD2fhEvKeOhXi12Fqnpi87E86DxaxvNqg8mO47OXZJGFGX6UoDA7OsicV8EK8PNqKlwK9Yu0MdyjeUop9Pg2YWKBfAcT6PIDz0gTrMMnFfzfJPGQQ9WhirgxRJyqvvbJ3bQbvdi3pa9R5bsMaCW_Pl_QpVw4m00]--></g></svg>