<svg xmlns="http://www.w3.org/2000/svg" xmlns:xlink="http://www.w3.org/1999/xlink" contentStyleType="text/css" data-diagram-type="CLASS" height="719px" preserveAspectRatio="none" style="width:934px;height:719px;background:#FFFFFF;" version="1.1" viewBox="0 0 934 719" width="934px" zoomAndPan="magnify"><defs/><g><!--class RegisterVaccineUI--><g class="entity" data-entity="RegisterVaccineUI" data-source-line="5" data-uid="ent0002" id="entity_RegisterVaccineUI"><rect fill="#F1F1F1" height="85.2422" rx="2.5" ry="2.5" style="stroke:#181818;stroke-width:0.5;" width="147.9375" x="517" y="7"/><ellipse cx="532" cy="23" fill="#ADD1B2" rx="11" ry="11" style="stroke:#181818;stroke-width:1;"/><path d="M534.7656,18.875 Q534.9219,18.6563 535.1094,18.5469 Q535.2969,18.4375 535.5156,18.4375 Q535.8906,18.4375 536.125,18.7031 Q536.3594,18.9531 536.3594,19.5625 L536.3594,21.0156 Q536.3594,21.625 536.125,21.8906 Q535.8906,22.1563 535.5156,22.1563 Q535.1719,22.1563 534.9688,21.9531 Q534.7656,21.7656 534.6563,21.25 Q534.6094,20.8906 534.4219,20.7031 Q534.0938,20.3281 533.4844,20.1094 Q532.875,19.8906 532.25,19.8906 Q531.4844,19.8906 530.8438,20.2188 Q530.2188,20.5469 529.7188,21.2969 Q529.2344,22.0469 529.2344,23.0781 L529.2344,24.1719 Q529.2344,25.4063 530.125,26.2344 Q531.0156,27.0469 532.6094,27.0469 Q533.5469,27.0469 534.2031,26.7969 Q534.5938,26.6406 535.0156,26.2031 Q535.2813,25.9375 535.4219,25.8594 Q535.5781,25.7813 535.7813,25.7813 Q536.1094,25.7813 536.3594,26.0469 Q536.625,26.2969 536.625,26.6406 Q536.625,26.9844 536.2813,27.3906 Q535.7813,27.9688 534.9844,28.2969 Q533.9063,28.75 532.6094,28.75 Q531.0938,28.75 529.8906,28.125 Q528.9063,27.625 528.2188,26.5625 Q527.5313,25.4844 527.5313,24.2031 L527.5313,23.0469 Q527.5313,21.7188 528.1406,20.5781 Q528.7656,19.4219 529.8594,18.8125 Q530.9531,18.1875 532.1875,18.1875 Q532.9219,18.1875 533.5625,18.3594 Q534.2188,18.5156 534.7656,18.875 Z " fill="#000000"/><text fill="#000000" font-family="sans-serif" font-size="14" lengthAdjust="spacing" textLength="115.9375" x="546" y="28.7969">RegisterVaccineUI</text><line style="stroke:#181818;stroke-width:0.5;" x1="518" x2="663.9375" y1="39" y2="39"/><line style="stroke:#181818;stroke-width:0.5;" x1="518" x2="663.9375" y1="47" y2="47"/><text fill="#000000" font-family="sans-serif" font-size="14" lengthAdjust="spacing" textLength="50.1826" x="523" y="66.1074">+show()</text><text fill="#000000" font-family="sans-serif" font-size="14" lengthAdjust="spacing" textLength="64.5791" x="523" y="84.7285">-doShow()</text></g><!--class RegisterVaccineController--><g class="entity" data-entity="RegisterVaccineController" data-source-line="11" data-uid="ent0003" id="entity_RegisterVaccineController"><rect fill="#F1F1F1" height="122.4844" rx="2.5" ry="2.5" style="stroke:#181818;stroke-width:0.5;" width="194.627" x="493.5" y="153"/><ellipse cx="508.5" cy="169" fill="#ADD1B2" rx="11" ry="11" style="stroke:#181818;stroke-width:1;"/><path d="M511.2656,164.875 Q511.4219,164.6563 511.6094,164.5469 Q511.7969,164.4375 512.0156,164.4375 Q512.3906,164.4375 512.625,164.7031 Q512.8594,164.9531 512.8594,165.5625 L512.8594,167.0156 Q512.8594,167.625 512.625,167.8906 Q512.3906,168.1563 512.0156,168.1563 Q511.6719,168.1563 511.4688,167.9531 Q511.2656,167.7656 511.1563,167.25 Q511.1094,166.8906 510.9219,166.7031 Q510.5938,166.3281 509.9844,166.1094 Q509.375,165.8906 508.75,165.8906 Q507.9844,165.8906 507.3438,166.2188 Q506.7188,166.5469 506.2188,167.2969 Q505.7344,168.0469 505.7344,169.0781 L505.7344,170.1719 Q505.7344,171.4063 506.625,172.2344 Q507.5156,173.0469 509.1094,173.0469 Q510.0469,173.0469 510.7031,172.7969 Q511.0938,172.6406 511.5156,172.2031 Q511.7813,171.9375 511.9219,171.8594 Q512.0781,171.7813 512.2813,171.7813 Q512.6094,171.7813 512.8594,172.0469 Q513.125,172.2969 513.125,172.6406 Q513.125,172.9844 512.7813,173.3906 Q512.2813,173.9688 511.4844,174.2969 Q510.4063,174.75 509.1094,174.75 Q507.5938,174.75 506.3906,174.125 Q505.4063,173.625 504.7188,172.5625 Q504.0313,171.4844 504.0313,170.2031 L504.0313,169.0469 Q504.0313,167.7188 504.6406,166.5781 Q505.2656,165.4219 506.3594,164.8125 Q507.4531,164.1875 508.6875,164.1875 Q509.4219,164.1875 510.0625,164.3594 Q510.7188,164.5156 511.2656,164.875 Z " fill="#000000"/><text fill="#000000" font-family="sans-serif" font-size="14" lengthAdjust="spacing" textLength="162.627" x="522.5" y="174.7969">RegisterVaccineController</text><line style="stroke:#181818;stroke-width:0.5;" x1="494.5" x2="687.127" y1="185" y2="185"/><line style="stroke:#181818;stroke-width:0.5;" x1="494.5" x2="687.127" y1="193" y2="193"/><text fill="#000000" font-family="sans-serif" font-size="14" lengthAdjust="spacing" textLength="180.127" x="499.5" y="212.1074">+RegisterVaccineController()</text><text fill="#000000" font-family="sans-serif" font-size="14" lengthAdjust="spacing" textLength="124.8926" x="499.5" y="230.7285">+getVaccineTypes()</text><text fill="#000000" font-family="sans-serif" font-size="14" lengthAdjust="spacing" textLength="170.0439" x="499.5" y="249.3496">+getVaccineTechnologies()</text><text fill="#000000" font-family="sans-serif" font-size="14" lengthAdjust="spacing" textLength="141.2373" x="499.5" y="267.9707">+registerVaccine(data)</text></g><!--class VaccineService--><g class="entity" data-entity="VaccineService" data-source-line="19" data-uid="ent0004" id="entity_VaccineService"><rect fill="#F1F1F1" height="85.2422" rx="2.5" ry="2.5" style="stroke:#181818;stroke-width:0.5;" width="153.2373" x="322.5" y="336"/><ellipse cx="348.6366" cy="352" fill="#ADD1B2" rx="11" ry="11" style="stroke:#181818;stroke-width:1;"/><path d="M351.4022,347.875 Q351.5585,347.6563 351.746,347.5469 Q351.9335,347.4375 352.1522,347.4375 Q352.5272,347.4375 352.7616,347.7031 Q352.996,347.9531 352.996,348.5625 L352.996,350.0156 Q352.996,350.625 352.7616,350.8906 Q352.5272,351.1563 352.1522,351.1563 Q351.8085,351.1563 351.6054,350.9531 Q351.4022,350.7656 351.2929,350.25 Q351.246,349.8906 351.0585,349.7031 Q350.7304,349.3281 350.121,349.1094 Q349.5116,348.8906 348.8866,348.8906 Q348.121,348.8906 347.4804,349.2188 Q346.8554,349.5469 346.3554,350.2969 Q345.871,351.0469 345.871,352.0781 L345.871,353.1719 Q345.871,354.4063 346.7616,355.2344 Q347.6522,356.0469 349.246,356.0469 Q350.1835,356.0469 350.8397,355.7969 Q351.2304,355.6406 351.6522,355.2031 Q351.9179,354.9375 352.0585,354.8594 Q352.2147,354.7813 352.4179,354.7813 Q352.746,354.7813 352.996,355.0469 Q353.2616,355.2969 353.2616,355.6406 Q353.2616,355.9844 352.9179,356.3906 Q352.4179,356.9688 351.621,357.2969 Q350.5429,357.75 349.246,357.75 Q347.7304,357.75 346.5272,357.125 Q345.5429,356.625 344.8554,355.5625 Q344.1679,354.4844 344.1679,353.2031 L344.1679,352.0469 Q344.1679,350.7188 344.7772,349.5781 Q345.4022,348.4219 346.496,347.8125 Q347.5897,347.1875 348.8241,347.1875 Q349.5585,347.1875 350.1991,347.3594 Q350.8554,347.5156 351.4022,347.875 Z " fill="#000000"/><text fill="#000000" font-family="sans-serif" font-size="14" lengthAdjust="spacing" textLength="96.4893" x="365.1114" y="357.7969">VaccineService</text><line style="stroke:#181818;stroke-width:0.5;" x1="323.5" x2="474.7373" y1="368" y2="368"/><line style="stroke:#181818;stroke-width:0.5;" x1="323.5" x2="474.7373" y1="376" y2="376"/><text fill="#000000" font-family="sans-serif" font-size="14" lengthAdjust="spacing" textLength="113.9893" x="328.5" y="395.1074">+VaccineService()</text><text fill="#000000" font-family="sans-serif" font-size="14" lengthAdjust="spacing" textLength="141.2373" x="328.5" y="413.7285">+registerVaccine(data)</text></g><!--class VaccineTypeService--><g class="entity" data-entity="VaccineTypeService" data-source-line="24" data-uid="ent0005" id="entity_VaccineTypeService"><rect fill="#F1F1F1" height="85.2422" rx="2.5" ry="2.5" style="stroke:#181818;stroke-width:0.5;" width="159.6133" x="511" y="336"/><ellipse cx="526" cy="352" fill="#ADD1B2" rx="11" ry="11" style="stroke:#181818;stroke-width:1;"/><path d="M528.7656,347.875 Q528.9219,347.6563 529.1094,347.5469 Q529.2969,347.4375 529.5156,347.4375 Q529.8906,347.4375 530.125,347.7031 Q530.3594,347.9531 530.3594,348.5625 L530.3594,350.0156 Q530.3594,350.625 530.125,350.8906 Q529.8906,351.1563 529.5156,351.1563 Q529.1719,351.1563 528.9688,350.9531 Q528.7656,350.7656 528.6563,350.25 Q528.6094,349.8906 528.4219,349.7031 Q528.0938,349.3281 527.4844,349.1094 Q526.875,348.8906 526.25,348.8906 Q525.4844,348.8906 524.8438,349.2188 Q524.2188,349.5469 523.7188,350.2969 Q523.2344,351.0469 523.2344,352.0781 L523.2344,353.1719 Q523.2344,354.4063 524.125,355.2344 Q525.0156,356.0469 526.6094,356.0469 Q527.5469,356.0469 528.2031,355.7969 Q528.5938,355.6406 529.0156,355.2031 Q529.2813,354.9375 529.4219,354.8594 Q529.5781,354.7813 529.7813,354.7813 Q530.1094,354.7813 530.3594,355.0469 Q530.625,355.2969 530.625,355.6406 Q530.625,355.9844 530.2813,356.3906 Q529.7813,356.9688 528.9844,357.2969 Q527.9063,357.75 526.6094,357.75 Q525.0938,357.75 523.8906,357.125 Q522.9063,356.625 522.2188,355.5625 Q521.5313,354.4844 521.5313,353.2031 L521.5313,352.0469 Q521.5313,350.7188 522.1406,349.5781 Q522.7656,348.4219 523.8594,347.8125 Q524.9531,347.1875 526.1875,347.1875 Q526.9219,347.1875 527.5625,347.3594 Q528.2188,347.5156 528.7656,347.875 Z " fill="#000000"/><text fill="#000000" font-family="sans-serif" font-size="14" lengthAdjust="spacing" textLength="127.6133" x="540" y="357.7969">VaccineTypeService</text><line style="stroke:#181818;stroke-width:0.5;" x1="512" x2="669.6133" y1="368" y2="368"/><line style="stroke:#181818;stroke-width:0.5;" x1="512" x2="669.6133" y1="376" y2="376"/><text fill="#000000" font-family="sans-serif" font-size="14" lengthAdjust="spacing" textLength="145.1133" x="517" y="395.1074">+VaccineTypeService()</text><text fill="#000000" font-family="sans-serif" font-size="14" lengthAdjust="spacing" textLength="124.8926" x="517" y="413.7285">+getVaccineTypes()</text></g><!--class VaccineContainer--><g class="entity" data-entity="VaccineContainer" data-source-line="30" data-uid="ent0006" id="entity_VaccineContainer"><rect fill="#F1F1F1" height="85.2422" rx="2.5" ry="2.5" style="stroke:#181818;stroke-width:0.5;" width="142.5098" x="326.5" y="482"/><ellipse cx="341.5" cy="498" fill="#ADD1B2" rx="11" ry="11" style="stroke:#181818;stroke-width:1;"/><path d="M344.2656,493.875 Q344.4219,493.6563 344.6094,493.5469 Q344.7969,493.4375 345.0156,493.4375 Q345.3906,493.4375 345.625,493.7031 Q345.8594,493.9531 345.8594,494.5625 L345.8594,496.0156 Q345.8594,496.625 345.625,496.8906 Q345.3906,497.1563 345.0156,497.1563 Q344.6719,497.1563 344.4688,496.9531 Q344.2656,496.7656 344.1563,496.25 Q344.1094,495.8906 343.9219,495.7031 Q343.5938,495.3281 342.9844,495.1094 Q342.375,494.8906 341.75,494.8906 Q340.9844,494.8906 340.3438,495.2188 Q339.7188,495.5469 339.2188,496.2969 Q338.7344,497.0469 338.7344,498.0781 L338.7344,499.1719 Q338.7344,500.4063 339.625,501.2344 Q340.5156,502.0469 342.1094,502.0469 Q343.0469,502.0469 343.7031,501.7969 Q344.0938,501.6406 344.5156,501.2031 Q344.7813,500.9375 344.9219,500.8594 Q345.0781,500.7813 345.2813,500.7813 Q345.6094,500.7813 345.8594,501.0469 Q346.125,501.2969 346.125,501.6406 Q346.125,501.9844 345.7813,502.3906 Q345.2813,502.9688 344.4844,503.2969 Q343.4063,503.75 342.1094,503.75 Q340.5938,503.75 339.3906,503.125 Q338.4063,502.625 337.7188,501.5625 Q337.0313,500.4844 337.0313,499.2031 L337.0313,498.0469 Q337.0313,496.7188 337.6406,495.5781 Q338.2656,494.4219 339.3594,493.8125 Q340.4531,493.1875 341.6875,493.1875 Q342.4219,493.1875 343.0625,493.3594 Q343.7188,493.5156 344.2656,493.875 Z " fill="#000000"/><text fill="#000000" font-family="sans-serif" font-size="14" lengthAdjust="spacing" textLength="110.5098" x="355.5" y="503.7969">VaccineContainer</text><line style="stroke:#181818;stroke-width:0.5;" x1="327.5" x2="468.0098" y1="514" y2="514"/><line style="stroke:#181818;stroke-width:0.5;" x1="327.5" x2="468.0098" y1="522" y2="522"/><text fill="#000000" font-family="sans-serif" font-size="14" lengthAdjust="spacing" textLength="68.0791" x="332.5" y="541.1074">+create(...)</text><text fill="#000000" font-family="sans-serif" font-size="14" lengthAdjust="spacing" textLength="94.541" x="332.5" y="559.7285">+save(vaccine)</text></g><!--class VaccineTechnologyRepository--><g class="entity" data-entity="VaccineTechnologyRepository" data-source-line="35" data-uid="ent0007" id="entity_VaccineTechnologyRepository"><rect fill="#F1F1F1" height="66.6211" rx="2.5" ry="2.5" style="stroke:#181818;stroke-width:0.5;" width="221.1025" x="706.5" y="345"/><ellipse cx="721.5" cy="361" fill="#B4A7E5" rx="11" ry="11" style="stroke:#181818;stroke-width:1;"/><path d="M722.4531,357.6406 L722.4531,364.2969 L724.1719,364.2969 Q724.7813,364.2969 725.0469,364.5313 Q725.3125,364.7656 725.3125,365.1563 Q725.3125,365.5313 725.0469,365.7656 Q724.7813,366 724.1719,366 L719.0313,366 Q718.4219,366 718.1563,365.7656 Q717.8906,365.5313 717.8906,365.1406 Q717.8906,364.7656 718.1563,364.5313 Q718.4219,364.2969 719.0313,364.2969 L720.75,364.2969 L720.75,357.6406 L719.0313,357.6406 Q718.4219,357.6406 718.1563,357.4063 Q717.8906,357.1719 717.8906,356.7813 Q717.8906,356.4063 718.1563,356.1719 Q718.4219,355.9375 719.0313,355.9375 L724.1719,355.9375 Q724.7813,355.9375 725.0469,356.1719 Q725.3125,356.4063 725.3125,356.7813 Q725.3125,357.1719 725.0469,357.4063 Q724.7813,357.6406 724.1719,357.6406 L722.4531,357.6406 Z " fill="#000000"/><text fill="#000000" font-family="sans-serif" font-size="14" font-style="italic" lengthAdjust="spacing" textLength="189.1025" x="735.5" y="366.7969">VaccineTechnologyRepository</text><line style="stroke:#181818;stroke-width:0.5;" x1="707.5" x2="926.6025" y1="377" y2="377"/><line style="stroke:#181818;stroke-width:0.5;" x1="707.5" x2="926.6025" y1="385" y2="385"/><text fill="#000000" font-family="sans-serif" font-size="14" lengthAdjust="spacing" textLength="52.5205" x="712.5" y="404.1074">+getAll()</text></g><!--class Vaccine--><g class="entity" data-entity="Vaccine" data-source-line="40" data-uid="ent0008" id="entity_Vaccine"><rect fill="#F1F1F1" height="66.6211" rx="2.5" ry="2.5" style="stroke:#181818;stroke-width:0.5;" width="267.6367" x="7" y="646"/><ellipse cx="111.665" cy="662" fill="#ADD1B2" rx="11" ry="11" style="stroke:#181818;stroke-width:1;"/><path d="M114.4307,657.875 Q114.5869,657.6563 114.7744,657.5469 Q114.9619,657.4375 115.1807,657.4375 Q115.5557,657.4375 115.79,657.7031 Q116.0244,657.9531 116.0244,658.5625 L116.0244,660.0156 Q116.0244,660.625 115.79,660.8906 Q115.5557,661.1563 115.1807,661.1563 Q114.8369,661.1563 114.6338,660.9531 Q114.4307,660.7656 114.3213,660.25 Q114.2744,659.8906 114.0869,659.7031 Q113.7588,659.3281 113.1494,659.1094 Q112.54,658.8906 111.915,658.8906 Q111.1494,658.8906 110.5088,659.2188 Q109.8838,659.5469 109.3838,660.2969 Q108.8994,661.0469 108.8994,662.0781 L108.8994,663.1719 Q108.8994,664.4063 109.79,665.2344 Q110.6807,666.0469 112.2744,666.0469 Q113.2119,666.0469 113.8682,665.7969 Q114.2588,665.6406 114.6807,665.2031 Q114.9463,664.9375 115.0869,664.8594 Q115.2432,664.7813 115.4463,664.7813 Q115.7744,664.7813 116.0244,665.0469 Q116.29,665.2969 116.29,665.6406 Q116.29,665.9844 115.9463,666.3906 Q115.4463,666.9688 114.6494,667.2969 Q113.5713,667.75 112.2744,667.75 Q110.7588,667.75 109.5557,667.125 Q108.5713,666.625 107.8838,665.5625 Q107.1963,664.4844 107.1963,663.2031 L107.1963,662.0469 Q107.1963,660.7188 107.8057,659.5781 Q108.4307,658.4219 109.5244,657.8125 Q110.6182,657.1875 111.8525,657.1875 Q112.5869,657.1875 113.2275,657.3594 Q113.8838,657.5156 114.4307,657.875 Z " fill="#000000"/><text fill="#000000" font-family="sans-serif" font-size="14" lengthAdjust="spacing" textLength="49.8066" x="132.165" y="667.7969">Vaccine</text><line style="stroke:#181818;stroke-width:0.5;" x1="8" x2="273.6367" y1="678" y2="678"/><line style="stroke:#181818;stroke-width:0.5;" x1="8" x2="273.6367" y1="686" y2="686"/><text fill="#000000" font-family="sans-serif" font-size="14" lengthAdjust="spacing" textLength="255.6367" x="13" y="705.1074">+Vaccine(code, name, manuf, type, tech)</text></g><!--class VaccineType--><g class="entity" data-entity="VaccineType" data-source-line="44" data-uid="ent0009" id="entity_VaccineType"><rect fill="#F1F1F1" height="48" rx="2.5" ry="2.5" style="stroke:#181818;stroke-width:0.5;" width="112.9307" x="535.5" y="655.5"/><ellipse cx="550.5" cy="671.5" fill="#ADD1B2" rx="11" ry="11" style="stroke:#181818;stroke-width:1;"/><path d="M553.2656,667.375 Q553.4219,667.1563 553.6094,667.0469 Q553.7969,666.9375 554.0156,666.9375 Q554.3906,666.9375 554.625,667.2031 Q554.8594,667.4531 554.8594,668.0625 L554.8594,669.5156 Q554.8594,670.125 554.625,670.3906 Q554.3906,670.6563 554.0156,670.6563 Q553.6719,670.6563 553.4688,670.4531 Q553.2656,670.2656 553.1563,669.75 Q553.1094,669.3906 552.9219,669.2031 Q552.5938,668.8281 551.9844,668.6094 Q551.375,668.3906 550.75,668.3906 Q549.9844,668.3906 549.3438,668.7188 Q548.7188,669.0469 548.2188,669.7969 Q547.7344,670.5469 547.7344,671.5781 L547.7344,672.6719 Q547.7344,673.9063 548.625,674.7344 Q549.5156,675.5469 551.1094,675.5469 Q552.0469,675.5469 552.7031,675.2969 Q553.0938,675.1406 553.5156,674.7031 Q553.7813,674.4375 553.9219,674.3594 Q554.0781,674.2813 554.2813,674.2813 Q554.6094,674.2813 554.8594,674.5469 Q555.125,674.7969 555.125,675.1406 Q555.125,675.4844 554.7813,675.8906 Q554.2813,676.4688 553.4844,676.7969 Q552.4063,677.25 551.1094,677.25 Q549.5938,677.25 548.3906,676.625 Q547.4063,676.125 546.7188,675.0625 Q546.0313,673.9844 546.0313,672.7031 L546.0313,671.5469 Q546.0313,670.2188 546.6406,669.0781 Q547.2656,667.9219 548.3594,667.3125 Q549.4531,666.6875 550.6875,666.6875 Q551.4219,666.6875 552.0625,666.8594 Q552.7188,667.0156 553.2656,667.375 Z " fill="#000000"/><text fill="#000000" font-family="sans-serif" font-size="14" lengthAdjust="spacing" textLength="80.9307" x="564.5" y="677.2969">VaccineType</text><line style="stroke:#181818;stroke-width:0.5;" x1="536.5" x2="647.4307" y1="687.5" y2="687.5"/><line style="stroke:#181818;stroke-width:0.5;" x1="536.5" x2="647.4307" y1="695.5" y2="695.5"/></g><!--class VaccineTechnology--><g class="entity" data-entity="VaccineTechnology" data-source-line="47" data-uid="ent0010" id="entity_VaccineTechnology"><rect fill="#F1F1F1" height="48" rx="2.5" ry="2.5" style="stroke:#181818;stroke-width:0.5;" width="154.1855" x="740" y="500.5"/><ellipse cx="755" cy="516.5" fill="#ADD1B2" rx="11" ry="11" style="stroke:#181818;stroke-width:1;"/><path d="M757.7656,512.375 Q757.9219,512.1563 758.1094,512.0469 Q758.2969,511.9375 758.5156,511.9375 Q758.8906,511.9375 759.125,512.2031 Q759.3594,512.4531 759.3594,513.0625 L759.3594,514.5156 Q759.3594,515.125 759.125,515.3906 Q758.8906,515.6563 758.5156,515.6563 Q758.1719,515.6563 757.9688,515.4531 Q757.7656,515.2656 757.6563,514.75 Q757.6094,514.3906 757.4219,514.2031 Q757.0938,513.8281 756.4844,513.6094 Q755.875,513.3906 755.25,513.3906 Q754.4844,513.3906 753.8438,513.7188 Q753.2188,514.0469 752.7188,514.7969 Q752.2344,515.5469 752.2344,516.5781 L752.2344,517.6719 Q752.2344,518.9063 753.125,519.7344 Q754.0156,520.5469 755.6094,520.5469 Q756.5469,520.5469 757.2031,520.2969 Q757.5938,520.1406 758.0156,519.7031 Q758.2813,519.4375 758.4219,519.3594 Q758.5781,519.2813 758.7813,519.2813 Q759.1094,519.2813 759.3594,519.5469 Q759.625,519.7969 759.625,520.1406 Q759.625,520.4844 759.2813,520.8906 Q758.7813,521.4688 757.9844,521.7969 Q756.9063,522.25 755.6094,522.25 Q754.0938,522.25 752.8906,521.625 Q751.9063,521.125 751.2188,520.0625 Q750.5313,518.9844 750.5313,517.7031 L750.5313,516.5469 Q750.5313,515.2188 751.1406,514.0781 Q751.7656,512.9219 752.8594,512.3125 Q753.9531,511.6875 755.1875,511.6875 Q755.9219,511.6875 756.5625,511.8594 Q757.2188,512.0156 757.7656,512.375 Z " fill="#000000"/><text fill="#000000" font-family="sans-serif" font-size="14" lengthAdjust="spacing" textLength="122.1855" x="769" y="522.2969">VaccineTechnology</text><line style="stroke:#181818;stroke-width:0.5;" x1="741" x2="893.1855" y1="532.5" y2="532.5"/><line style="stroke:#181818;stroke-width:0.5;" x1="741" x2="893.1855" y1="540.5" y2="540.5"/></g><!--class DuplicateCodeException--><g class="entity" data-entity="DuplicateCodeException" data-source-line="51" data-uid="ent0011" id="entity_DuplicateCodeException"><rect fill="#F1F1F1" height="48" rx="2.5" ry="2.5" style="stroke:#181818;stroke-width:0.5;" width="185.3164" x="310.5" y="655.5"/><ellipse cx="325.5" cy="671.5" fill="#FF0000" rx="11" ry="11" style="stroke:#181818;stroke-width:1;"/><path d="M324.3594,672.2969 L324.3594,674.7969 L328.6875,674.7969 L328.6875,673.875 Q328.6875,673.2656 328.9219,673 Q329.1719,672.7344 329.5469,672.7344 Q329.9219,672.7344 330.1563,673 Q330.3906,673.2656 330.3906,673.875 L330.3906,676.5 L322.3906,676.5 Q321.7656,676.5 321.5,676.2656 Q321.25,676.0313 321.25,675.6406 Q321.25,675.2656 321.5156,675.0313 Q321.7813,674.7969 322.3906,674.7969 L322.6563,674.7969 L322.6563,668.1406 L322.3906,668.1406 Q321.7656,668.1406 321.5,667.9063 Q321.25,667.6719 321.25,667.2813 Q321.25,666.9063 321.5,666.6719 Q321.7656,666.4375 322.3906,666.4375 L330.0156,666.4375 L330.0156,669.0313 Q330.0156,669.6406 329.7813,669.9063 Q329.5625,670.1563 329.1719,670.1563 Q328.7969,670.1563 328.5625,669.9063 Q328.3281,669.6406 328.3281,669.0313 L328.3281,668.1406 L324.3594,668.1406 L324.3594,670.5938 L325.8438,670.5938 Q325.8438,669.9375 325.9688,669.75 Q326.2344,669.3438 326.7031,669.3438 Q327.0781,669.3438 327.3125,669.6094 Q327.5469,669.8594 327.5469,670.4688 L327.5469,672.4375 Q327.5469,672.9844 327.4219,673.1719 Q327.1563,673.5625 326.7031,673.5625 Q326.2344,673.5625 325.9688,673.1563 Q325.8438,672.9688 325.8438,672.2969 L324.3594,672.2969 Z " fill="#000000"/><text fill="#000000" font-family="sans-serif" font-size="14" lengthAdjust="spacing" textLength="153.3164" x="339.5" y="677.2969">DuplicateCodeException</text><line style="stroke:#181818;stroke-width:0.5;" x1="311.5" x2="494.8164" y1="687.5" y2="687.5"/><line style="stroke:#181818;stroke-width:0.5;" x1="311.5" x2="494.8164" y1="695.5" y2="695.5"/></g><!--class VaccineTypeContainer--><g class="entity" data-entity="VaccineTypeContainer" data-source-line="62" data-uid="ent0017" id="entity_VaccineTypeContainer"><rect fill="#F1F1F1" height="48" rx="2.5" ry="2.5" style="stroke:#181818;stroke-width:0.5;" width="173.6338" x="505" y="500.5"/><ellipse cx="520" cy="516.5" fill="#ADD1B2" rx="11" ry="11" style="stroke:#181818;stroke-width:1;"/><path d="M522.7656,512.375 Q522.9219,512.1563 523.1094,512.0469 Q523.2969,511.9375 523.5156,511.9375 Q523.8906,511.9375 524.125,512.2031 Q524.3594,512.4531 524.3594,513.0625 L524.3594,514.5156 Q524.3594,515.125 524.125,515.3906 Q523.8906,515.6563 523.5156,515.6563 Q523.1719,515.6563 522.9688,515.4531 Q522.7656,515.2656 522.6563,514.75 Q522.6094,514.3906 522.4219,514.2031 Q522.0938,513.8281 521.4844,513.6094 Q520.875,513.3906 520.25,513.3906 Q519.4844,513.3906 518.8438,513.7188 Q518.2188,514.0469 517.7188,514.7969 Q517.2344,515.5469 517.2344,516.5781 L517.2344,517.6719 Q517.2344,518.9063 518.125,519.7344 Q519.0156,520.5469 520.6094,520.5469 Q521.5469,520.5469 522.2031,520.2969 Q522.5938,520.1406 523.0156,519.7031 Q523.2813,519.4375 523.4219,519.3594 Q523.5781,519.2813 523.7813,519.2813 Q524.1094,519.2813 524.3594,519.5469 Q524.625,519.7969 524.625,520.1406 Q524.625,520.4844 524.2813,520.8906 Q523.7813,521.4688 522.9844,521.7969 Q521.9063,522.25 520.6094,522.25 Q519.0938,522.25 517.8906,521.625 Q516.9063,521.125 516.2188,520.0625 Q515.5313,518.9844 515.5313,517.7031 L515.5313,516.5469 Q515.5313,515.2188 516.1406,514.0781 Q516.7656,512.9219 517.8594,512.3125 Q518.9531,511.6875 520.1875,511.6875 Q520.9219,511.6875 521.5625,511.8594 Q522.2188,512.0156 522.7656,512.375 Z " fill="#000000"/><text fill="#000000" font-family="sans-serif" font-size="14" lengthAdjust="spacing" textLength="141.6338" x="534" y="522.2969">VaccineTypeContainer</text><line style="stroke:#181818;stroke-width:0.5;" x1="506" x2="677.6338" y1="532.5" y2="532.5"/><line style="stroke:#181818;stroke-width:0.5;" x1="506" x2="677.6338" y1="540.5" y2="540.5"/></g><!--link RegisterVaccineUI to RegisterVaccineController--><g class="link" data-entity-1="RegisterVaccineUI" data-entity-2="RegisterVaccineController" data-source-line="56" data-uid="lnk12" id="link_RegisterVaccineUI_RegisterVaccineController"><path codeLine="56" d="M591,92.35 C591,110.78 591,126.78 591,146.92" fill="none" id="RegisterVaccineUI-to-RegisterVaccineController" style="stroke:#181818;stroke-width:1;stroke-dasharray:7,7;"/><polygon fill="#181818" points="591,152.92,595,143.92,591,147.92,587,143.92,591,152.92" style="stroke:#181818;stroke-width:1;"/></g><!--link RegisterVaccineController to VaccineService--><g class="link" data-entity-1="RegisterVaccineController" data-entity-2="VaccineService" data-source-line="57" data-uid="lnk13" id="link_RegisterVaccineController_VaccineService"><path codeLine="57" d="M520.05,275.05 C496.12,295.3 474.54,313.564 452.68,332.064" fill="none" id="RegisterVaccineController-to-VaccineService" style="stroke:#181818;stroke-width:1;stroke-dasharray:7,7;"/><polygon fill="#181818" points="448.1,335.94,457.554,333.1793,451.9167,332.71,452.386,327.0726,448.1,335.94" style="stroke:#181818;stroke-width:1;"/></g><!--link RegisterVaccineController to VaccineTypeService--><g class="link" data-entity-1="RegisterVaccineController" data-entity-2="VaccineTypeService" data-source-line="58" data-uid="lnk14" id="link_RegisterVaccineController_VaccineTypeService"><path codeLine="58" d="M591,275.05 C591,295.3 591,311.44 591,329.94" fill="none" id="RegisterVaccineController-to-VaccineTypeService" style="stroke:#181818;stroke-width:1;stroke-dasharray:7,7;"/><polygon fill="#181818" points="591,335.94,595,326.94,591,330.94,587,326.94,591,335.94" style="stroke:#181818;stroke-width:1;"/></g><!--link RegisterVaccineController to VaccineTechnologyRepository--><g class="link" data-entity-1="RegisterVaccineController" data-entity-2="VaccineTechnologyRepository" data-source-line="59" data-uid="lnk15" id="link_RegisterVaccineController_VaccineTechnologyRepository"><path codeLine="59" d="M674.51,275.05 C707.33,298.64 738.849,321.3067 766.629,341.2867" fill="none" id="RegisterVaccineController-to-VaccineTechnologyRepository" style="stroke:#181818;stroke-width:1;stroke-dasharray:7,7;"/><polygon fill="#181818" points="771.5,344.79,766.5291,336.2877,767.4408,341.8706,761.8579,342.7823,771.5,344.79" style="stroke:#181818;stroke-width:1;"/></g><!--link VaccineService to VaccineContainer--><g class="link" data-entity-1="VaccineService" data-entity-2="VaccineContainer" data-source-line="61" data-uid="lnk16" id="link_VaccineService_VaccineContainer"><path codeLine="61" d="M398.71,421.15 C398.58,440.26 398.4609,456.8501 398.3309,475.9401" fill="none" id="VaccineService-to-VaccineContainer" style="stroke:#181818;stroke-width:1;stroke-dasharray:7,7;"/><polygon fill="#181818" points="398.29,481.94,402.3512,472.9674,398.324,476.9401,394.3514,472.913,398.29,481.94" style="stroke:#181818;stroke-width:1;"/></g><!--link VaccineTypeService to VaccineTypeContainer--><g class="link" data-entity-1="VaccineTypeService" data-entity-2="VaccineTypeContainer" data-source-line="62" data-uid="lnk18" id="link_VaccineTypeService_VaccineTypeContainer"><path codeLine="62" d="M591.29,421.15 C591.47,446.9 591.6478,472.9901 591.7978,494.3001" fill="none" id="VaccineTypeService-to-VaccineTypeContainer" style="stroke:#181818;stroke-width:1;stroke-dasharray:7,7;"/><polygon fill="#181818" points="591.84,500.3,595.7766,491.2721,591.8048,495.3001,587.7768,491.3284,591.84,500.3" style="stroke:#181818;stroke-width:1;"/></g><!--reverse link VaccineContainer to Vaccine--><g class="link" data-entity-1="VaccineContainer" data-entity-2="Vaccine" data-source-line="64" data-uid="lnk19" id="link_VaccineContainer_Vaccine"><path codeLine="64" d="M317.7981,573.2471 C276.1781,598.0171 234.44,622.87 195.8,645.87" fill="none" id="VaccineContainer-backto-Vaccine" style="stroke:#181818;stroke-width:1;"/><polygon fill="none" points="328.11,567.11,320.9083,566.7412,317.7981,573.2471,324.9997,573.6159,328.11,567.11" style="stroke:#181818;stroke-width:1;"/><text fill="#000000" font-family="sans-serif" font-size="13" lengthAdjust="spacing" textLength="7.23" x="311.2966" y="588.0095">1</text><text fill="#000000" font-family="sans-serif" font-size="13" lengthAdjust="spacing" textLength="5.0591" x="201.1381" y="634.6699">*</text></g><!--link VaccineContainer to DuplicateCodeException--><g class="link" data-entity-1="VaccineContainer" data-entity-2="DuplicateCodeException" data-source-line="65" data-uid="lnk20" id="link_VaccineContainer_DuplicateCodeException"><path codeLine="65" d="M399.37,567.31 C400.29,595.62 401.2842,625.9832 402.0442,649.2632" fill="none" id="VaccineContainer-to-DuplicateCodeException" style="stroke:#181818;stroke-width:1;stroke-dasharray:7,7;"/><polygon fill="#181818" points="402.24,655.26,405.9442,646.1343,402.0769,650.2627,397.9485,646.3953,402.24,655.26" style="stroke:#181818;stroke-width:1;"/><text fill="#000000" font-family="sans-serif" font-size="13" lengthAdjust="spacing" textLength="52.749" x="402" y="612.0283">&#171;throws&#187;</text></g><!--reverse link VaccineTypeContainer to VaccineType--><g class="link" data-entity-1="VaccineTypeContainer" data-entity-2="VaccineType" data-source-line="66" data-uid="lnk21" id="link_VaccineTypeContainer_VaccineType"><path codeLine="66" d="M592,560.74 C592,589.49 592,626.19 592,655.04" fill="none" id="VaccineTypeContainer-backto-VaccineType" style="stroke:#181818;stroke-width:1;"/><polygon fill="none" points="592,548.74,588,554.74,592,560.74,596,554.74,592,548.74" style="stroke:#181818;stroke-width:1;"/><text fill="#000000" font-family="sans-serif" font-size="13" lengthAdjust="spacing" textLength="7.23" x="584.2596" y="570.3731">1</text><text fill="#000000" font-family="sans-serif" font-size="13" lengthAdjust="spacing" textLength="5.0591" x="586.4063" y="644.0698">*</text></g><!--link VaccineTechnologyRepository to VaccineTechnology--><g class="link" data-entity-1="VaccineTechnologyRepository" data-entity-2="VaccineTechnology" data-source-line="68" data-uid="lnk22" id="link_VaccineTechnologyRepository_VaccineTechnology"><path codeLine="68" d="M817,412.18 C817,439.06 817,470.5 817,494.37" fill="none" id="VaccineTechnologyRepository-to-VaccineTechnology" style="stroke:#181818;stroke-width:1;stroke-dasharray:7,7;"/><polygon fill="#181818" points="817,500.37,821,491.37,817,495.37,813,491.37,817,500.37" style="stroke:#181818;stroke-width:1;"/></g><!--SRC=[ZL91JiCm4Bpx5QjU6g0Dz8ggI5KB4X8d2joDixGMZXtPRg4WtiCBU04VmudJj6aSwCLAFBEpuztfmpLdI-HQNSB3V3GQJcTnlie4CIzSvbJJ39YWnaoirVnfPV66AJddxmWNXFJXuGPkwGOrAKbmXmjkBEf7oXYNwD0F0d06PgbUenFtEOHKpVtFPr4_LT9g9GJgltJsM5wl4o-RdC42RGNTRt8qxLjaIwc4Ml0Qr4t9AAMMLYOdUIuuevOhUJv7lUOC6swhaYtaBJOl_slI42ey1yNsWCw7bexlC5U6MwKtvyLigCDroF8Ez7sOHcenYkFOonkwncZjkQKqbyxzCtN63YUvsVMin9otYH1RIpELkKuX4yqtHaobE019CtTcLAwU1s3TszpfMeM7vHHQrxKl3_RXwerXNkom8ivMVgjk22dM88p745qDDAOda2I-jXoee3zVFzzeI3lZSPnq9v9qPxceQyRaEF9U38ui22o9a8FOxl7hM9108W-CxBYa5QhUg0TgE8JUQMzRqYOLUXsxk7JRi4kjNasIa53FK8U2K7i9nZCu6V8B]--></g></svg>