<svg xmlns="http://www.w3.org/2000/svg" xmlns:xlink="http://www.w3.org/1999/xlink" contentStyleType="text/css" data-diagram-type="DESCRIPTION" height="1499px" preserveAspectRatio="none" style="width:689px;height:1499px;background:#FFFFFF;" version="1.1" viewBox="0 0 689 1499" width="689px" zoomAndPan="magnify"><title>Use Case Diagram - PMS (Sprint 2)</title><defs/><g><g class="title"><text fill="#000000" font-family="sans-serif" font-size="14" font-weight="bold" lengthAdjust="spacing" textLength="231.0615" x="222.3256" y="25.1074">Use Case Diagram - PMS (Sprint 2)</text></g><!--entity User--><g class="entity"
                                                                                                                                                                                                                                                                                                                                                                                                                                                                                                                                                                                                                          data-source-line="6" data-uid="ent0002" id="entity_User"><ellipse cx="155.1172" cy="1342.6211" fill="#F1F1F1" rx="8" ry="8" style="stroke:#181818;stroke-width:0.5;"/><path d="M155.1172,1350.6211 L155.1172,1377.6211 M142.1172,1358.6211 L168.1172,1358.6211 M155.1172,1377.6211 L142.1172,1392.6211 M155.1172,1377.6211 L168.1172,1392.6211" fill="none" style="stroke:#181818;stroke-width:0.5;"/><text fill="#000000" font-family="sans-serif" font-size="14" lengthAdjust="spacing" textLength="62.2344" x="124" y="1409.2285">SNS User</text></g><!--entity Rec--><g class="entity" data-entity="Rec" data-source-line="7" data-uid="ent0003" id="entity_Rec"><ellipse cx="155.0205" cy="402.6211" fill="#F1F1F1" rx="8" ry="8" style="stroke:#181818;stroke-width:0.5;"/><path d="M155.0205,410.6211 L155.0205,437.6211 M142.0205,418.6211 L168.0205,418.6211 M155.0205,437.6211 L142.0205,452.6211 M155.0205,437.6211 L168.0205,452.6211" fill="none" style="stroke:#181818;stroke-width:0.5;"/><text fill="#000000" font-family="sans-serif" font-size="14" lengthAdjust="spacing" textLength="77.041" x="116.5" y="469.2285">Receptionist</text></g><!--entity Nurse--><g class="entity" data-entity="Nurse" data-source-line="8" data-uid="ent0004" id="entity_Nurse"><ellipse cx="155.1724" cy="164.6211" fill="#F1F1F1" rx="8" ry="8" style="stroke:#181818;stroke-width:0.5;"/><path d="M155.1724,172.6211 L155.1724,199.6211 M142.1724,180.6211 L168.1724,180.6211 M155.1724,199.6211 L142.1724,214.6211 M155.1724,199.6211 L168.1724,214.6211" fill="none" style="stroke:#181818;stroke-width:0.5;"/><text fill="#000000" font-family="sans-serif" font-size="14" lengthAdjust="spacing" textLength="37.3447" x="136.5" y="231.2285">Nurse</text></g><!--entity Admin--><g class="entity" data-entity="Admin" data-source-line="9" data-uid="ent0005" id="entity_Admin"><ellipse cx="154.8481" cy="916.6211" fill="#F1F1F1" rx="8" ry="8" style="stroke:#181818;stroke-width:0.5;"/><path d="M154.8481,924.6211 L154.8481,951.6211 M141.8481,932.6211 L167.8481,932.6211 M154.8481,951.6211 L141.8481,966.6211 M154.8481,951.6211 L167.8481,966.6211" fill="none" style="stroke:#181818;stroke-width:0.5;"/><text fill="#000000" font-family="sans-serif" font-size="14" lengthAdjust="spacing" textLength="116.6963" x="96.5" y="983.2285">DGS Administrator</text></g><!--entity System--><g class="entity" data-entity="System" data-source-line="10" data-uid="ent0006" id="entity_System"><ellipse cx="154.7861" cy="547.6211" fill="#808080" rx="8" ry="8" style="stroke:#181818;stroke-width:0.5;"/><path d="M154.7861,555.6211 L154.7861,582.6211 M141.7861,563.6211 L167.7861,563.6211 M154.7861,582.6211 L141.7861,597.6211 M154.7861,582.6211 L167.7861,597.6211" fill="none" style="stroke:#181818;stroke-width:0.5;"/><text fill="#000000" font-family="sans-serif" font-size="14" lengthAdjust="spacing" textLength="120.5723" x="94.5" y="614.2285">Core System Timer</text></g><!--entity UC01--><g class="entity" data-entity="UC01" data-source-line="13" data-uid="ent0007" id="entity_UC01"><ellipse cx="523.8773" cy="1285.6965" fill="#F1F1F1" rx="98.3773" ry="22.0755" style="stroke:#181818;stroke-width:0.5;"/><text fill="#000000" font-family="sans-serif" font-size="14" lengthAdjust="spacing" textLength="166.4893" x="440.6326" y="1291.5071">UC01 - Register SNS User</text></g><!--entity UC02--><g class="entity" data-entity="UC02" data-source-line="14" data-uid="ent0008" id="entity_UC02"><ellipse cx="524.1183" cy="1373.7448" fill="#F1F1F1" rx="143.6183" ry="31.1237" style="stroke:#181818;stroke-width:0.5;"/><text fill="#000000" font-family="sans-serif" font-size="14" lengthAdjust="spacing" textLength="265.3779" x="391.4294" y="1379.5553">UC02 - Schedule Vaccination Appointment</text></g><!--entity UC03--><g class="entity" data-entity="UC03" data-source-line="15" data-uid="ent0009" id="entity_UC03"><ellipse cx="523.7551" cy="1466.6721" fill="#F1F1F1" rx="123.2551" ry="27.051" style="stroke:#181818;stroke-width:0.5;"/><text fill="#000000" font-family="sans-serif" font-size="14" lengthAdjust="spacing" textLength="221.7578" x="412.8762" y="1472.4827">UC03 - View Vaccination Certificate</text></g><!--entity UC04--><g class="entity" data-entity="UC04" data-source-line="17" data-uid="ent0010" id="entity_UC04"><ellipse cx="523.9682" cy="403.5147" fill="#F1F1F1" rx="107.4682" ry="23.8936" style="stroke:#181818;stroke-width:0.5;"/><text fill="#000000" font-family="sans-serif" font-size="14" lengthAdjust="spacing" textLength="187.0449" x="430.4458" y="409.3253">UC04 - Register User's Arrival</text></g><!--entity UC05--><g class="entity" data-entity="UC05" data-source-line="18" data-uid="ent0011" id="entity_UC05"><ellipse cx="524.2103" cy="485.8632" fill="#F1F1F1" rx="104.2103" ry="23.2421" style="stroke:#181818;stroke-width:0.5;"/><text fill="#000000" font-family="sans-serif" font-size="14" lengthAdjust="spacing" textLength="179.7373" x="434.3417" y="491.6737">UC05 - Confirm Appointment</text></g><!--entity UC06--><g class="entity" data-entity="UC06" data-source-line="19" data-uid="ent0012" id="entity_UC06"><ellipse cx="524.2272" cy="70.4665" fill="#F1F1F1" rx="112.2272" ry="24.8454" style="stroke:#181818;stroke-width:0.5;"/><text fill="#000000" font-family="sans-serif" font-size="14" lengthAdjust="spacing" textLength="197.6201" x="425.4172" y="76.2771">UC06 - Issue Certificate On-site</text></g><!--entity UC07--><g class="entity" data-entity="UC07" data-source-line="21" data-uid="ent0013" id="entity_UC07"><ellipse cx="524.0193" cy="154.625" fill="#F1F1F1" rx="108.0193" ry="24.0039" style="stroke:#181818;stroke-width:0.5;"/><text fill="#000000" font-family="sans-serif" font-size="14" lengthAdjust="spacing" textLength="188.2754" x="429.8816" y="160.4355">UC07 - View User Waiting List</text></g><!--entity UC08--><g class="entity" data-entity="UC08" data-source-line="22" data-uid="ent0014" id="entity_UC08"><ellipse cx="524.0642" cy="235.8339" fill="#F1F1F1" rx="99.0642" ry="22.2128" style="stroke:#181818;stroke-width:0.5;"/><text fill="#000000" font-family="sans-serif" font-size="14" lengthAdjust="spacing" textLength="168.0615" x="440.0334" y="241.6445">UC08 - Administer Vaccine</text></g><!--entity UC09--><g class="entity" data-entity="UC09" data-source-line="23" data-uid="ent0015" id="entity_UC09"><ellipse cx="523.8331" cy="318.3877" fill="#F1F1F1" rx="116.8331" ry="25.7666" style="stroke:#181818;stroke-width:0.5;"/><text fill="#000000" font-family="sans-serif" font-size="14" lengthAdjust="spacing" textLength="207.7578" x="419.9542" y="324.1983">UC09 - Record Adverse Reaction</text></g><!--entity UC10--><g class="entity" data-entity="UC10" data-source-line="25" data-uid="ent0016" id="entity_UC10"><ellipse cx="524.1415" cy="675.7494" fill="#F1F1F1" rx="126.1415" ry="27.6283" style="stroke:#181818;stroke-width:0.5;"/><text fill="#000000" font-family="sans-serif" font-size="14" lengthAdjust="spacing" textLength="228.0059" x="410.1386" y="681.5599">UC10 - Manage Vaccination Centers</text></g><!--entity UC11--><g class="entity" data-entity="UC11" data-source-line="26" data-uid="ent0017" id="entity_UC11"><ellipse cx="524.1389" cy="769.4489" fill="#F1F1F1" rx="142.1389" ry="30.8278" style="stroke:#181818;stroke-width:0.5;"/><text fill="#000000" font-family="sans-serif" font-size="14" lengthAdjust="spacing" textLength="262.2402" x="393.0188" y="775.2594">UC11 - Manage Receptionists and Nurses</text></g><!--entity UC12--><g class="entity" data-entity="UC12" data-source-line="27" data-uid="ent0018" id="entity_UC12"><ellipse cx="523.8347" cy="860.688" fill="#F1F1F1" rx="110.8347" ry="24.5669" style="stroke:#181818;stroke-width:0.5;"/><text fill="#000000" font-family="sans-serif" font-size="14" lengthAdjust="spacing" textLength="194.5371" x="426.5662" y="866.4986">UC12 - Manage Vaccine Types</text></g><!--entity UC13--><g class="entity" data-entity="UC13" data-source-line="28" data-uid="ent0019" id="entity_UC13"><ellipse cx="523.8991" cy="947.6009" fill="#F1F1F1" rx="122.8991" ry="26.9798" style="stroke:#181818;stroke-width:0.5;"/><text fill="#000000" font-family="sans-serif" font-size="14" lengthAdjust="spacing" textLength="220.9854" x="413.4064" y="953.4115">UC13 - Configure Current Outbreak</text></g><!--entity UC14--><g class="entity" data-entity="UC14" data-source-line="30" data-uid="ent0020" id="entity_UC14"><ellipse cx="523.8564" cy="578.4924" fill="#F1F1F1" rx="159.8564" ry="34.3713" style="stroke:#181818;stroke-width:0.5;"/><text fill="#000000" font-family="sans-serif" font-size="14" lengthAdjust="spacing" textLength="299.5781" x="374.0673" y="584.3029">UC14 - System Alert: Observation Period Ended</text></g><!--entity UC15--><g class="entity" data-entity="UC15" data-source-line="32" data-uid="ent0021" id="entity_UC15"><ellipse cx="524.2496" cy="1032.471" fill="#F1F1F1" rx="99.7496" ry="22.3499" style="stroke:#181818;stroke-width:0.5;"/><text fill="#000000" font-family="sans-serif" font-size="14" lengthAdjust="spacing" textLength="165.7373" x="439.4361" y="1038.2816">UC15 - Register a Vaccine</text></g><!--entity UC16--><g class="entity" data-entity="UC16" data-source-line="33" data-uid="ent0022" id="entity_UC16"><ellipse cx="524.0883" cy="1112.5388" fill="#F1F1F1" rx="100.0883" ry="22.4177" style="stroke:#181818;stroke-width:0.5;"/><text fill="#000000" font-family="sans-serif" font-size="14" lengthAdjust="spacing" textLength="166.5098" x="438.8886" y="1118.3493">UC16 - Register Employee</text></g><!--entity UC17--><g class="entity" data-entity="UC17" data-source-line="34" data-uid="ent0023" id="entity_UC17"><ellipse cx="523.9156" cy="1199.4042" fill="#F1F1F1" rx="131.9156" ry="28.7831" style="stroke:#181818;stroke-width:0.5;"/><text fill="#000000" font-family="sans-serif" font-size="14" lengthAdjust="spacing" textLength="236.5439" x="403.6988" y="1205.2148">UC17 - Get List of Employees by Role</text></g><g class="entity" data-entity="GMN41" data-source-line="66" data-uid="ent0042" id="entity_GMN41"><path d="M35.5,1254.1211 L35.5,1298.7031 A0,0 0 0 0 35.5,1298.7031 L151,1298.7031 L155,1333.8311 L159,1298.7031 L274.0088,1298.7031 A0,0 0 0 0 274.0088,1298.7031 L274.0088,1264.1211 L264.0088,1254.1211 L35.5,1254.1211 A0,0 0 0 0 35.5,1254.1211" fill="#FEFFDD" style="stroke:#181818;stroke-width:0.5;"/><path d="M264.0088,1254.1211 L264.0088,1264.1211 L274.0088,1264.1211 L264.0088,1254.1211" fill="#FEFFDD" style="stroke:#181818;stroke-width:0.5;"/><text fill="#000000" font-family="sans-serif" font-size="13" lengthAdjust="spacing" textLength="145.228" x="41.5" y="1273.1494">Citizen registered in SNS</text><text fill="#000000" font-family="sans-serif" font-size="13" lengthAdjust="spacing" textLength="217.5088" x="41.5" y="1290.4404">who schedules and receives vaccines</text></g><g class="entity" data-entity="GMN44" data-source-line="71" data-uid="ent0045" id="entity_GMN44"><path d="M50,1022.1211 L50,1066.7031 A0,0 0 0 0 50,1066.7031 L260.3125,1066.7031 A0,0 0 0 0 260.3125,1066.7031 L260.3125,1032.1211 L250.3125,1022.1211 L159,1022.1211 L155,987.3611 L151,1022.1211 L50,1022.1211 A0,0 0 0 0 50,1022.1211" fill="#FEFFDD" style="stroke:#181818;stroke-width:0.5;"/><path d="M250.3125,1022.1211 L250.3125,1032.1211 L260.3125,1032.1211 L250.3125,1022.1211" fill="#FEFFDD" style="stroke:#181818;stroke-width:0.5;"/><text fill="#000000" font-family="sans-serif" font-size="13" lengthAdjust="spacing" textLength="189.3125" x="56" y="1041.1494">Manages centers, vaccines, staff</text><text fill="#000000" font-family="sans-serif" font-size="13" lengthAdjust="spacing" textLength="122.8525" x="56" y="1058.4404">and produces reports</text></g><g class="entity" data-entity="GMN47" data-source-line="76" data-uid="ent0048" id="entity_GMN47"><path d="M6,653.1211 L6,697.7031 A0,0 0 0 0 6,697.7031 L303.7451,697.7031 A0,0 0 0 0 303.7451,697.7031 L303.7451,663.1211 L293.7451,653.1211 L159,653.1211 L155,618.3611 L151,653.1211 L6,653.1211 A0,0 0 0 0 6,653.1211" fill="#FEFFDD" style="stroke:#181818;stroke-width:0.5;"/><path d="M293.7451,653.1211 L293.7451,663.1211 L303.7451,663.1211 L293.7451,653.1211" fill="#FEFFDD" style="stroke:#181818;stroke-width:0.5;"/><text fill="#000000" font-family="sans-serif" font-size="13" lengthAdjust="spacing" textLength="138.7534" x="12" y="672.1494">Internal event scheduler</text><text fill="#000000" font-family="sans-serif" font-size="13" lengthAdjust="spacing" textLength="276.7451" x="12" y="689.4404">responsible for notifications or automatic checks</text></g><!--link User to UC01--><g class="link" data-entity-1="User" data-entity-2="UC01" data-source-line="39" data-uid="lnk24" id="link_User_UC01"><path d="M186.03,1366.4211 C244.75,1352.3411 370.1953,1322.2598 450.4553,1303.0198" fill="none" id="User-to-UC01" style="stroke:#181818;stroke-width:1;"/><polygon fill="#181818" points="456.29,1301.6211,446.6055,1299.8293,451.4278,1302.7867,448.4704,1307.6089,456.29,1301.6211" style="stroke:#181818;stroke-width:1;"/></g><!--link User to UC02--><g class="link" data-entity-1="User" data-entity-2="UC02" data-source-line="40" data-uid="lnk25" id="link_User_UC02"><path d="M186.03,1373.6211 C228.49,1373.6211 302.87,1373.6211 374.48,1373.6211" fill="none" id="User-to-UC02" style="stroke:#181818;stroke-width:1;"/><polygon fill="#181818" points="380.48,1373.6211,371.48,1369.6211,375.48,1373.6211,371.48,1377.6211,380.48,1373.6211" style="stroke:#181818;stroke-width:1;"/></g><!--link User to UC03--><g class="link" data-entity-1="User" data-entity-2="UC03" data-source-line="41" data-uid="lnk26" id="link_User_UC03"><path d="M186.03,1381.2311 C241.5,1395.2911 355.8938,1424.2774 436.6838,1444.7474" fill="none" id="User-to-UC03" style="stroke:#181818;stroke-width:1;"/><polygon fill="#181818" points="442.5,1446.2211,434.7581,1440.1331,437.6532,1444.993,432.7932,1447.8881,442.5,1446.2211" style="stroke:#181818;stroke-width:1;"/></g><!--link Rec to UC04--><g class="link" data-entity-1="Rec" data-entity-2="UC04" data-source-line="44" data-uid="lnk27" id="link_Rec_UC04"><path d="M193.55,430.5511 C246.99,426.1811 340.9099,418.51 416.7499,412.31" fill="none" id="Rec-to-UC04" style="stroke:#181818;stroke-width:1;"/><polygon fill="#181818" points="422.73,411.8211,413.434,408.5677,417.7466,412.2285,414.0858,416.5411,422.73,411.8211" style="stroke:#181818;stroke-width:1;"/></g><!--link Rec to UC05--><g class="link" data-entity-1="Rec" data-entity-2="UC05" data-source-line="45" data-uid="lnk28" id="link_Rec_UC05"><path d="M193.55,438.9411 C250.18,446.9611 353.0694,461.5393 430.1294,472.4593" fill="none" id="Rec-to-UC05" style="stroke:#181818;stroke-width:1;"/><polygon fill="#181818" points="436.07,473.3011,427.7203,468.0779,431.1195,472.5996,426.5978,475.9988,436.07,473.3011" style="stroke:#181818;stroke-width:1;"/></g><!--link Nurse to UC06--><g class="link" data-entity-1="Nurse" data-entity-2="UC06" data-source-line="48" data-uid="lnk29" id="link_Nurse_UC06"><path d="M173.54,187.7811 C209.01,172.1111 292.01,136.3911 364,112.6211 C390.57,103.8511 414.2902,97.1299 440.6102,90.3399" fill="none" id="Nurse-to-UC06" style="stroke:#181818;stroke-width:1;"/><polygon fill="#181818" points="446.42,88.8411,436.7061,87.2161,441.5785,90.0901,438.7045,94.9625,446.42,88.8411" style="stroke:#181818;stroke-width:1;"/></g><!--link Nurse to UC07--><g class="link" data-entity-1="Nurse" data-entity-2="UC07" data-source-line="49" data-uid="lnk30" id="link_Nurse_UC07"><path d="M173.7,193.6411 C218.73,188.6111 334.2771,175.7077 421.3171,165.9777" fill="none" id="Nurse-to-UC07" style="stroke:#181818;stroke-width:1;"/><polygon fill="#181818" points="427.28,165.3111,417.8913,162.3357,422.311,165.8666,418.7801,170.2862,427.28,165.3111" style="stroke:#181818;stroke-width:1;"/></g><!--link Nurse to UC08--><g class="link" data-entity-1="Nurse" data-entity-2="UC08" data-source-line="50" data-uid="lnk31" id="link_Nurse_UC08"><path d="M173.7,197.5511 C220.02,202.6011 341.2853,215.8215 428.6953,225.3415" fill="none" id="Nurse-to-UC08" style="stroke:#181818;stroke-width:1;"/><polygon fill="#181818" points="434.66,225.9911,426.146,221.0402,429.6894,225.4497,425.2798,228.9931,434.66,225.9911" style="stroke:#181818;stroke-width:1;"/></g><!--link Nurse to UC09--><g class="link" data-entity-1="Nurse" data-entity-2="UC09" data-source-line="51" data-uid="lnk32" id="link_Nurse_UC09"><path d="M173.61,202.9511 C209.2,217.6111 292.42,251.1811 364,274.6211 C390.67,283.3611 414.4404,290.2761 440.7604,297.4361" fill="none" id="Nurse-to-UC09" style="stroke:#181818;stroke-width:1;"/><polygon fill="#181818" points="446.55,299.0111,438.9156,292.7889,441.7253,297.6986,436.8156,300.5084,446.55,299.0111" style="stroke:#181818;stroke-width:1;"/></g><!--link Admin to UC10--><g class="link" data-entity-1="Admin" data-entity-2="UC10" data-source-line="54" data-uid="lnk33" id="link_Admin_UC10"><path d="M182.07,907.9411 C217.37,857.3111 285.11,770.4511 364,721.6211 C383.55,709.5211 400.6654,702.223 422.8554,695.533" fill="none" id="Admin-to-UC10" style="stroke:#181818;stroke-width:1;"/><polygon fill="#181818" points="428.6,693.8011,418.8285,692.5692,423.8128,695.2444,421.1377,700.2287,428.6,693.8011" style="stroke:#181818;stroke-width:1;"/></g><!--link Admin to UC11--><g class="link" data-entity-1="Admin" data-entity-2="UC11" data-source-line="55" data-uid="lnk34" id="link_Admin_UC11"><path d="M211.2,907.9411 C251.91,880.0511 309.47,843.4311 364,818.6211 C385.43,808.8711 403.6032,802.151 426.2232,795.081" fill="none" id="Admin-to-UC11" style="stroke:#181818;stroke-width:1;"/><polygon fill="#181818" points="431.95,793.2911,422.1665,792.1581,427.1777,794.7827,424.5531,799.7939,431.95,793.2911" style="stroke:#181818;stroke-width:1;"/></g><!--link Admin to UC12--><g class="link" data-entity-1="Admin" data-entity-2="UC12" data-source-line="56" data-uid="lnk35" id="link_Admin_UC12"><path d="M213.75,933.9311 C276.93,918.9511 372.6018,896.2749 441.9618,879.8349" fill="none" id="Admin-to-UC12" style="stroke:#181818;stroke-width:1;"/><polygon fill="#181818" points="447.8,878.4511,438.1201,876.6346,442.9348,879.6043,439.9652,884.419,447.8,878.4511" style="stroke:#181818;stroke-width:1;"/></g><!--link Admin to UC13--><g class="link" data-entity-1="Admin" data-entity-2="UC13" data-source-line="57" data-uid="lnk36" id="link_Admin_UC13"><path d="M213.75,947.6211 C263.71,947.6211 331.63,947.6211 394.68,947.6211" fill="none" id="Admin-to-UC13" style="stroke:#181818;stroke-width:1;"/><polygon fill="#181818" points="400.68,947.6211,391.68,943.6211,395.68,947.6211,391.68,951.6211,400.68,947.6211" style="stroke:#181818;stroke-width:1;"/></g><!--link Admin to UC15--><g class="link" data-entity-1="Admin" data-entity-2="UC15" data-source-line="58" data-uid="lnk37" id="link_Admin_UC15"><path d="M213.75,960.9911 C278.75,976.0511 378.4647,999.1474 447.8547,1015.2174" fill="none" id="Admin-to-UC15" style="stroke:#181818;stroke-width:1;"/><polygon fill="#181818" points="453.7,1016.5711,445.8345,1010.6437,448.8289,1015.443,444.0296,1018.4374,453.7,1016.5711" style="stroke:#181818;stroke-width:1;"/></g><!--link Admin to UC16--><g class="link" data-entity-1="Admin" data-entity-2="UC16" data-source-line="59" data-uid="lnk38" id="link_Admin_UC16"><path d="M213.6,962.7011 C242.37,971.9411 276.76,985.6811 304,1004.6211 C337.09,1027.6311 329.58,1051.6511 364,1072.6211 C386.24,1086.1711 407.0616,1093.7578 432.1316,1099.6978" fill="none" id="Admin-to-UC16" style="stroke:#181818;stroke-width:1;"/><polygon fill="#181818" points="437.97,1101.0811,430.1347,1095.1139,433.1047,1099.9283,428.2902,1102.8984,437.97,1101.0811" style="stroke:#181818;stroke-width:1;"/></g><!--link Admin to UC17--><g class="link" data-entity-1="Admin" data-entity-2="UC17" data-source-line="60" data-uid="lnk39" id="link_Admin_UC17"><path d="M213.68,958.2711 C243.88,966.4611 279.55,980.5911 304,1004.6211 C354.63,1054.3711 311.42,1104.9411 364,1152.6211 C378.93,1166.1511 391.931,1173.779 411.151,1180.659" fill="none" id="Admin-to-UC17" style="stroke:#181818;stroke-width:1;"/><polygon fill="#181818" points="416.8,1182.6811,409.6746,1175.8819,412.0925,1180.996,406.9784,1183.4139,416.8,1182.6811" style="stroke:#181818;stroke-width:1;"/></g><!--link System to UC14--><g class="link" data-entity-1="System" data-entity-2="UC14" data-source-line="62" data-uid="lnk40" id="link_System_UC14"><path d="M215.78,578.6211 C256.1,578.6211 305.33,578.6211 357.86,578.6211" fill="none" id="System-to-UC14" style="stroke:#181818;stroke-width:1;"/><polygon fill="#181818" points="363.86,578.6211,354.86,574.6211,358.86,578.6211,354.86,582.6211,363.86,578.6211" style="stroke:#181818;stroke-width:1;"/></g><!--SRC=[VLJRJkCm47tFLupOXu94jwHNG6AbAbHi9MYhfi2pcqoBHH97jbFK_VeTst6ReDM-H3dZCnVF74_dG-jItVTwPSOANUNPpqJalKfXDs7qIJdRIvO7ckiCuLKXH6I6HsU6BgnUOhYCIyaB3Vsh8CET1Yr0yls7XfHBJ3GNHH1quE7X0QRHPhcEpM_04YqaNCIBs8IL5y2K_V47QqomDBvSQNj81d-sgAH2QxH_tlpu5CCqpRbnaOnCbc8jdX89YH0VbSOSDZolyzO6-B6NUFIrliOpYARnp9Lx-HhTX7JVDUufEahmXL_PmkdGKlf4YPCFJ2jgrnjB4bumSmcObgMW7kLOQE_Hjnu3ydZZ-DLYHoWrt_64QVJiGM3fmsOD9d-7RYWbFx3CCuUME29Y98eTb_c_aeyiQKoakL8LDZF2ikWgViuyTfadlb2J5TuPrxpOmpDLueaJoxibdfy24TsrJi5kBUVEtY8HCYNg0Mc619cLYYVUsQpX3J5VMC7s-Ar11GLNDJcyiTpmp6sgHm4hKgUKauETLjZ_7XnXSopFB3kXSE0xkQz8F54b9IM7PQMt4jcdvxhvX6O-jPoc6VNq7fPRwjV1bRr2oKKAioB5r3iEQxqjPky4Ep74g_LyiO6-rrquQiwSdKhr0Umemt6JDClBJ1pnp1bRZXdX4sexD12x4qt1zWXhaPtv4_yArhFdwMQ-NCI_volt4kZ0Qp-mKkXsVxa7q4Jz5XeOh-PC0WB-SDW48yDqhzf-lNtSXfCsl6t3EnEajGa2Y-fpaaiBXctORyD16uxQSDo64zCTD_vBRVPB3m-a5dKLrDQQD_JzNImtzOOf13qzBKep6DlSY5xO7on0rbF552WHzJxu-X2WwYtZr4rx5lc1mC69GmL8LXCoS86tGckHczXk7phPAqZSGxe-ELw3qcot2qpKKegqIeWbiHHI_oUekrqmDy4Abe6zzQb66KXKfIWKtvB6ThI8oTrj6vA30ZAmYY8HJ81yaiz6ghy0]--></g></svg>