<svg xmlns="http://www.w3.org/2000/svg" xmlns:xlink="http://www.w3.org/1999/xlink" contentStyleType="text/css" data-diagram-type="DESCRIPTION" height="1264px" preserveAspectRatio="none" style="width:689px;height:1264px;background:#FFFFFF;" version="1.1" viewBox="0 0 689 1264" width="689px" zoomAndPan="magnify"><title>Use Case Diagram - PVMS (Sprint 1)</title><defs/><g><g class="title" data-source-line="2"><text fill="#000000" font-family="sans-serif" font-size="14" font-weight="bold" lengthAdjust="spacing" textLength="240.3994" x="217.6567" y="25.1074">Use Case Diagram - PVMS (Sprint 1)</text></g><!--entity User--><g class="entity" data-entity="User" data-source-line="6" data-uid="ent0002" id="entity_User"><ellipse cx="155.1172" cy="1107.6211" fill="#F1F1F1" rx="8" ry="8" style="stroke:#181818;stroke-width:0.5;"/><path d="M155.1172,1115.6211 L155.1172,1142.6211 M142.1172,1123.6211 L168.1172,1123.6211 M155.1172,1142.6211 L142.1172,1157.6211 M155.1172,1142.6211 L168.1172,1157.6211" fill="none" style="stroke:#181818;stroke-width:0.5;"/><text fill="#000000" font-family="sans-serif" font-size="14" lengthAdjust="spacing" textLength="62.2344" x="124" y="1174.2285">SNS User</text></g><!--entity Rec--><g class="entity" data-entity="Rec" data-source-line="7" data-uid="ent0003" id="entity_Rec"><ellipse cx="155.0205" cy="402.6211" fill="#F1F1F1" rx="8" ry="8" style="stroke:#181818;stroke-width:0.5;"/><path d="M155.0205,410.6211 L155.0205,437.6211 M142.0205,418.6211 L168.0205,418.6211 M155.0205,437.6211 L142.0205,452.6211 M155.0205,437.6211 L168.0205,452.6211" fill="none" style="stroke:#181818;stroke-width:0.5;"/><text fill="#000000" font-family="sans-serif" font-size="14" lengthAdjust="spacing" textLength="77.041" x="116.5" y="469.2285">Receptionist</text></g><!--entity Nurse--><g class="entity" data-entity="Nurse" data-source-line="8" data-uid="ent0004" id="entity_Nurse"><ellipse cx="155.1724" cy="164.6211" fill="#F1F1F1" rx="8" ry="8" style="stroke:#181818;stroke-width:0.5;"/><path d="M155.1724,172.6211 L155.1724,199.6211 M142.1724,180.6211 L168.1724,180.6211 M155.1724,199.6211 L142.1724,214.6211 M155.1724,199.6211 L168.1724,214.6211" fill="none" style="stroke:#181818;stroke-width:0.5;"/><text fill="#000000" font-family="sans-serif" font-size="14" lengthAdjust="spacing" textLength="37.3447" x="136.5" y="231.2285">Nurse</text></g><!--entity Admin--><g class="entity" data-entity="Admin" data-source-line="9" data-uid="ent0005" id="entity_Admin"><ellipse cx="154.8481" cy="777.6211" fill="#F1F1F1" rx="8" ry="8" style="stroke:#181818;stroke-width:0.5;"/><path d="M154.8481,785.6211 L154.8481,812.6211 M141.8481,793.6211 L167.8481,793.6211 M154.8481,812.6211 L141.8481,827.6211 M154.8481,812.6211 L167.8481,827.6211" fill="none" style="stroke:#181818;stroke-width:0.5;"/><text fill="#000000" font-family="sans-serif" font-size="14" lengthAdjust="spacing" textLength="116.6963" x="96.5" y="844.2285">DGS Administrator</text></g><!--entity System--><g class="entity" data-entity="System" data-source-line="10" data-uid="ent0006" id="entity_System"><ellipse cx="154.7861" cy="547.6211" fill="#808080" rx="8" ry="8" style="stroke:#181818;stroke-width:0.5;"/><path d="M154.7861,555.6211 L154.7861,582.6211 M141.7861,563.6211 L167.7861,563.6211 M154.7861,582.6211 L141.7861,597.6211 M154.7861,582.6211 L167.7861,597.6211" fill="none" style="stroke:#181818;stroke-width:0.5;"/><text fill="#000000" font-family="sans-serif" font-size="14" lengthAdjust="spacing" textLength="120.5723" x="94.5" y="614.2285">Core System Timer</text></g><!--entity UC01--><g class="entity" data-entity="UC01" data-source-line="13" data-uid="ent0007" id="entity_UC01"><ellipse cx="523.8773" cy="1050.6965" fill="#F1F1F1" rx="98.3773" ry="22.0755" style="stroke:#181818;stroke-width:0.5;"/><text fill="#000000" font-family="sans-serif" font-size="14" lengthAdjust="spacing" textLength="166.4893" x="440.6326" y="1056.5071">UC01 - Register SNS User</text></g><!--entity UC02--><g class="entity" data-entity="UC02" data-source-line="14" data-uid="ent0008" id="entity_UC02"><ellipse cx="524.1183" cy="1138.7448" fill="#F1F1F1" rx="143.6183" ry="31.1237" style="stroke:#181818;stroke-width:0.5;"/><text fill="#000000" font-family="sans-serif" font-size="14" lengthAdjust="spacing" textLength="265.3779" x="391.4294" y="1144.5553">UC02 - Schedule Vaccination Appointment</text></g><!--entity UC03--><g class="entity" data-entity="UC03" data-source-line="15" data-uid="ent0009" id="entity_UC03"><ellipse cx="523.7551" cy="1231.6721" fill="#F1F1F1" rx="123.2551" ry="27.051" style="stroke:#181818;stroke-width:0.5;"/><text fill="#000000" font-family="sans-serif" font-size="14" lengthAdjust="spacing" textLength="221.7578" x="412.8762" y="1237.4827">UC03 - View Vaccination Certificate</text></g><!--entity UC04--><g class="entity" data-entity="UC04" data-source-line="17" data-uid="ent0010" id="entity_UC04"><ellipse cx="523.9682" cy="403.5147" fill="#F1F1F1" rx="107.4682" ry="23.8936" style="stroke:#181818;stroke-width:0.5;"/><text fill="#000000" font-family="sans-serif" font-size="14" lengthAdjust="spacing" textLength="187.0449" x="430.4458" y="409.3253">UC04 - Register User's Arrival</text></g><!--entity UC05--><g class="entity" data-entity="UC05" data-source-line="18" data-uid="ent0011" id="entity_UC05"><ellipse cx="524.2103" cy="485.8632" fill="#F1F1F1" rx="104.2103" ry="23.2421" style="stroke:#181818;stroke-width:0.5;"/><text fill="#000000" font-family="sans-serif" font-size="14" lengthAdjust="spacing" textLength="179.7373" x="434.3417" y="491.6737">UC05 - Confirm Appointment</text></g><!--entity UC06--><g class="entity" data-entity="UC06" data-source-line="19" data-uid="ent0012" id="entity_UC06"><ellipse cx="524.2272" cy="70.4665" fill="#F1F1F1" rx="112.2272" ry="24.8454" style="stroke:#181818;stroke-width:0.5;"/><text fill="#000000" font-family="sans-serif" font-size="14" lengthAdjust="spacing" textLength="197.6201" x="425.4172" y="76.2771">UC06 - Issue Certificate On-site</text></g><!--entity UC07--><g class="entity" data-entity="UC07" data-source-line="21" data-uid="ent0013" id="entity_UC07"><ellipse cx="524.0193" cy="154.625" fill="#F1F1F1" rx="108.0193" ry="24.0039" style="stroke:#181818;stroke-width:0.5;"/><text fill="#000000" font-family="sans-serif" font-size="14" lengthAdjust="spacing" textLength="188.2754" x="429.8816" y="160.4355">UC07 - View User Waiting List</text></g><!--entity UC08--><g class="entity" data-entity="UC08" data-source-line="22" data-uid="ent0014" id="entity_UC08"><ellipse cx="524.0642" cy="235.8339" fill="#F1F1F1" rx="99.0642" ry="22.2128" style="stroke:#181818;stroke-width:0.5;"/><text fill="#000000" font-family="sans-serif" font-size="14" lengthAdjust="spacing" textLength="168.0615" x="440.0334" y="241.6445">UC08 - Administer Vaccine</text></g><!--entity UC09--><g class="entity" data-entity="UC09" data-source-line="23" data-uid="ent0015" id="entity_UC09"><ellipse cx="523.8331" cy="318.3877" fill="#F1F1F1" rx="116.8331" ry="25.7666" style="stroke:#181818;stroke-width:0.5;"/><text fill="#000000" font-family="sans-serif" font-size="14" lengthAdjust="spacing" textLength="207.7578" x="419.9542" y="324.1983">UC09 - Record Adverse Reaction</text></g><!--entity UC10--><g class="entity" data-entity="UC10" data-source-line="25" data-uid="ent0016" id="entity_UC10"><ellipse cx="524.1415" cy="694.7494" fill="#F1F1F1" rx="126.1415" ry="27.6283" style="stroke:#181818;stroke-width:0.5;"/><text fill="#000000" font-family="sans-serif" font-size="14" lengthAdjust="spacing" textLength="228.0059" x="410.1386" y="700.5599">UC10 - Manage Vaccination Centers</text></g><!--entity UC11--><g class="entity" data-entity="UC11" data-source-line="26" data-uid="ent0017" id="entity_UC11"><ellipse cx="524.1389" cy="788.4489" fill="#F1F1F1" rx="142.1389" ry="30.8278" style="stroke:#181818;stroke-width:0.5;"/><text fill="#000000" font-family="sans-serif" font-size="14" lengthAdjust="spacing" textLength="262.2402" x="393.0188" y="794.2594">UC11 - Manage Receptionists and Nurses</text></g><!--entity UC12--><g class="entity" data-entity="UC12" data-source-line="27" data-uid="ent0018" id="entity_UC12"><ellipse cx="523.8347" cy="879.688" fill="#F1F1F1" rx="110.8347" ry="24.5669" style="stroke:#181818;stroke-width:0.5;"/><text fill="#000000" font-family="sans-serif" font-size="14" lengthAdjust="spacing" textLength="194.5371" x="426.5662" y="885.4986">UC12 - Manage Vaccine Types</text></g><!--entity UC13--><g class="entity" data-entity="UC13" data-source-line="28" data-uid="ent0019" id="entity_UC13"><ellipse cx="523.8991" cy="966.6009" fill="#F1F1F1" rx="122.8991" ry="26.9798" style="stroke:#181818;stroke-width:0.5;"/><text fill="#000000" font-family="sans-serif" font-size="14" lengthAdjust="spacing" textLength="220.9854" x="413.4064" y="972.4115">UC13 - Configure Current Outbreak</text></g><!--entity UC14--><g class="entity" data-entity="UC14" data-source-line="30" data-uid="ent0020" id="entity_UC14"><ellipse cx="523.8564" cy="578.4924" fill="#F1F1F1" rx="159.8564" ry="34.3713" style="stroke:#181818;stroke-width:0.5;"/><text fill="#000000" font-family="sans-serif" font-size="14" lengthAdjust="spacing" textLength="299.5781" x="374.0673" y="584.3029">UC14 - System Alert: Observation Period Ended</text></g><g class="entity" data-entity="GMN35" data-source-line="65" data-uid="ent0036" id="entity_GMN35"><path d="M35.5,1019.1211 L35.5,1063.7031 A0,0 0 0 0 35.5,1063.7031 L151,1063.7031 L155,1098.8311 L159,1063.7031 L274.0088,1063.7031 A0,0 0 0 0 274.0088,1063.7031 L274.0088,1029.1211 L264.0088,1019.1211 L35.5,1019.1211 A0,0 0 0 0 35.5,1019.1211" fill="#FEFFDD" style="stroke:#181818;stroke-width:0.5;"/><path d="M264.0088,1019.1211 L264.0088,1029.1211 L274.0088,1029.1211 L264.0088,1019.1211" fill="#FEFFDD" style="stroke:#181818;stroke-width:0.5;"/><text fill="#000000" font-family="sans-serif" font-size="13" lengthAdjust="spacing" textLength="145.228" x="41.5" y="1038.1494">Citizen registered in SNS</text><text fill="#000000" font-family="sans-serif" font-size="13" lengthAdjust="spacing" textLength="217.5088" x="41.5" y="1055.4404">who schedules and receives vaccines</text></g><g class="entity" data-entity="GMN38" data-source-line="70" data-uid="ent0039" id="entity_GMN38"><path d="M50,883.1211 L50,927.7031 A0,0 0 0 0 50,927.7031 L260.3125,927.7031 A0,0 0 0 0 260.3125,927.7031 L260.3125,893.1211 L250.3125,883.1211 L159,883.1211 L155,848.3611 L151,883.1211 L50,883.1211 A0,0 0 0 0 50,883.1211" fill="#FEFFDD" style="stroke:#181818;stroke-width:0.5;"/><path d="M250.3125,883.1211 L250.3125,893.1211 L260.3125,893.1211 L250.3125,883.1211" fill="#FEFFDD" style="stroke:#181818;stroke-width:0.5;"/><text fill="#000000" font-family="sans-serif" font-size="13" lengthAdjust="spacing" textLength="189.3125" x="56" y="902.1494">Manages centers, vaccines, staff</text><text fill="#000000" font-family="sans-serif" font-size="13" lengthAdjust="spacing" textLength="122.8525" x="56" y="919.4404">and produces reports</text></g><g class="entity" data-entity="GMN41" data-source-line="75" data-uid="ent0042" id="entity_GMN41"><path d="M6,653.1211 L6,697.7031 A0,0 0 0 0 6,697.7031 L303.7451,697.7031 A0,0 0 0 0 303.7451,697.7031 L303.7451,663.1211 L293.7451,653.1211 L159,653.1211 L155,618.3611 L151,653.1211 L6,653.1211 A0,0 0 0 0 6,653.1211" fill="#FEFFDD" style="stroke:#181818;stroke-width:0.5;"/><path d="M293.7451,653.1211 L293.7451,663.1211 L303.7451,663.1211 L293.7451,653.1211" fill="#FEFFDD" style="stroke:#181818;stroke-width:0.5;"/><text fill="#000000" font-family="sans-serif" font-size="13" lengthAdjust="spacing" textLength="138.7534" x="12" y="672.1494">Internal event scheduler</text><text fill="#000000" font-family="sans-serif" font-size="13" lengthAdjust="spacing" textLength="276.7451" x="12" y="689.4404">responsible for notifications or automatic checks</text></g><!--link User to UC01--><g class="link" data-entity-1="User" data-entity-2="UC01" data-source-line="35" data-uid="lnk21" id="link_User_UC01"><path d="M186.03,1131.4211 C244.75,1117.3411 370.1953,1087.2598 450.4553,1068.0198" fill="none" id="User-to-UC01" style="stroke:#181818;stroke-width:1;"/><polygon fill="#181818" points="456.29,1066.6211,446.6055,1064.8293,451.4278,1067.7867,448.4704,1072.6089,456.29,1066.6211" style="stroke:#181818;stroke-width:1;"/></g><!--link User to UC02--><g class="link" data-entity-1="User" data-entity-2="UC02" data-source-line="36" data-uid="lnk22" id="link_User_UC02"><path d="M186.03,1138.6211 C228.49,1138.6211 302.87,1138.6211 374.48,1138.6211" fill="none" id="User-to-UC02" style="stroke:#181818;stroke-width:1;"/><polygon fill="#181818" points="380.48,1138.6211,371.48,1134.6211,375.48,1138.6211,371.48,1142.6211,380.48,1138.6211" style="stroke:#181818;stroke-width:1;"/></g><!--link User to UC03--><g class="link" data-entity-1="User" data-entity-2="UC03" data-source-line="37" data-uid="lnk23" id="link_User_UC03"><path d="M186.03,1146.2311 C241.5,1160.2911 355.8938,1189.2774 436.6838,1209.7474" fill="none" id="User-to-UC03" style="stroke:#181818;stroke-width:1;"/><polygon fill="#181818" points="442.5,1211.2211,434.7581,1205.1331,437.6532,1209.993,432.7932,1212.8881,442.5,1211.2211" style="stroke:#181818;stroke-width:1;"/></g><!--link Rec to UC04--><g class="link" data-entity-1="Rec" data-entity-2="UC04" data-source-line="40" data-uid="lnk24" id="link_Rec_UC04"><path d="M193.55,430.5511 C246.99,426.1811 340.9099,418.51 416.7499,412.31" fill="none" id="Rec-to-UC04" style="stroke:#181818;stroke-width:1;"/><polygon fill="#181818" points="422.73,411.8211,413.434,408.5677,417.7466,412.2285,414.0858,416.5411,422.73,411.8211" style="stroke:#181818;stroke-width:1;"/></g><!--link Rec to UC05--><g class="link" data-entity-1="Rec" data-entity-2="UC05" data-source-line="41" data-uid="lnk25" id="link_Rec_UC05"><path d="M193.55,438.9411 C250.18,446.9611 353.0694,461.5393 430.1294,472.4593" fill="none" id="Rec-to-UC05" style="stroke:#181818;stroke-width:1;"/><polygon fill="#181818" points="436.07,473.3011,427.7203,468.0779,431.1195,472.5996,426.5978,475.9988,436.07,473.3011" style="stroke:#181818;stroke-width:1;"/></g><!--link Nurse to UC06--><g class="link" data-entity-1="Nurse" data-entity-2="UC06" data-source-line="44" data-uid="lnk26" id="link_Nurse_UC06"><path d="M173.54,187.7811 C209.01,172.1111 292.01,136.3911 364,112.6211 C390.57,103.8511 414.2902,97.1299 440.6102,90.3399" fill="none" id="Nurse-to-UC06" style="stroke:#181818;stroke-width:1;"/><polygon fill="#181818" points="446.42,88.8411,436.7061,87.2161,441.5785,90.0901,438.7045,94.9625,446.42,88.8411" style="stroke:#181818;stroke-width:1;"/></g><!--link Nurse to UC07--><g class="link" data-entity-1="Nurse" data-entity-2="UC07" data-source-line="45" data-uid="lnk27" id="link_Nurse_UC07"><path d="M173.7,193.6411 C218.73,188.6111 334.2771,175.7077 421.3171,165.9777" fill="none" id="Nurse-to-UC07" style="stroke:#181818;stroke-width:1;"/><polygon fill="#181818" points="427.28,165.3111,417.8913,162.3357,422.311,165.8666,418.7801,170.2862,427.28,165.3111" style="stroke:#181818;stroke-width:1;"/></g><!--link Nurse to UC08--><g class="link" data-entity-1="Nurse" data-entity-2="UC08" data-source-line="46" data-uid="lnk28" id="link_Nurse_UC08"><path d="M173.7,197.5511 C220.02,202.6011 341.2853,215.8215 428.6953,225.3415" fill="none" id="Nurse-to-UC08" style="stroke:#181818;stroke-width:1;"/><polygon fill="#181818" points="434.66,225.9911,426.146,221.0402,429.6894,225.4497,425.2798,228.9931,434.66,225.9911" style="stroke:#181818;stroke-width:1;"/></g><!--link Nurse to UC09--><g class="link" data-entity-1="Nurse" data-entity-2="UC09" data-source-line="47" data-uid="lnk29" id="link_Nurse_UC09"><path d="M173.61,202.9511 C209.2,217.6111 292.42,251.1811 364,274.6211 C390.67,283.3611 414.4404,290.2761 440.7604,297.4361" fill="none" id="Nurse-to-UC09" style="stroke:#181818;stroke-width:1;"/><polygon fill="#181818" points="446.55,299.0111,438.9156,292.7889,441.7253,297.6986,436.8156,300.5084,446.55,299.0111" style="stroke:#181818;stroke-width:1;"/></g><!--link Admin to UC10--><g class="link" data-entity-1="Admin" data-entity-2="UC10" data-source-line="50" data-uid="lnk30" id="link_Admin_UC10"><path d="M213.66,789.1811 C255.32,775.2811 312.99,756.3311 364,740.6211 C390.64,732.4111 414.1535,725.4788 440.2435,717.9788" fill="none" id="Admin-to-UC10" style="stroke:#181818;stroke-width:1;"/><polygon fill="#181818" points="446.01,716.3211,436.2552,714.9633,441.2046,717.7025,438.4654,722.6519,446.01,716.3211" style="stroke:#181818;stroke-width:1;"/></g><!--link Admin to UC11--><g class="link" data-entity-1="Admin" data-entity-2="UC11" data-source-line="51" data-uid="lnk31" id="link_Admin_UC11"><path d="M213.75,805.4711 C259.87,802.9611 320.4289,799.657 379.9889,796.417" fill="none" id="Admin-to-UC11" style="stroke:#181818;stroke-width:1;"/><polygon fill="#181818" points="385.98,796.0911,376.776,792.5859,380.9874,796.3627,377.2106,800.5741,385.98,796.0911" style="stroke:#181818;stroke-width:1;"/></g><!--link Admin to UC12--><g class="link" data-entity-1="Admin" data-entity-2="UC12" data-source-line="52" data-uid="lnk32" id="link_Admin_UC12"><path d="M213.75,819.7911 C274.61,831.5711 365.1392,849.0814 434.1392,862.4314" fill="none" id="Admin-to-UC12" style="stroke:#181818;stroke-width:1;"/><polygon fill="#181818" points="440.03,863.5711,431.9537,857.9343,435.121,862.6213,430.434,865.7887,440.03,863.5711" style="stroke:#181818;stroke-width:1;"/></g><!--link Admin to UC13--><g class="link" data-entity-1="Admin" data-entity-2="UC13" data-source-line="53" data-uid="lnk33" id="link_Admin_UC13"><path d="M213.57,825.0611 C242.01,834.5811 276.11,848.1611 304,865.6211 C334.92,884.9711 332.23,903.7111 364,921.6211 C384.74,933.3111 402.9833,940.5041 425.9533,947.1041" fill="none" id="Admin-to-UC13" style="stroke:#181818;stroke-width:1;"/><polygon fill="#181818" points="431.72,948.7611,424.1746,942.4312,426.9144,947.3803,421.9654,950.1201,431.72,948.7611" style="stroke:#181818;stroke-width:1;"/></g><!--link System to UC14--><g class="link" data-entity-1="System" data-entity-2="UC14" data-source-line="56" data-uid="lnk34" id="link_System_UC14"><path d="M215.78,578.6211 C256.1,578.6211 305.33,578.6211 357.86,578.6211" fill="none" id="System-to-UC14" style="stroke:#181818;stroke-width:1;"/><polygon fill="#181818" points="363.86,578.6211,354.86,574.6211,358.86,578.6211,354.86,582.6211,363.86,578.6211" style="stroke:#181818;stroke-width:1;"/></g><!--SRC=[VLJDRjim3BxxAOZkq1PObZhz7zO2WHji0RgagDDkLrLYKc6sP4XokkvrTXZs77snKPALniEmYo2I7tz4VjJketEDVJySDXLJhgshTrpNmzRYW3CwX6Ghm-hCILSXt5c4WjHm5TKmW9lxpoNibOsHoa6-drMuTE0q6BbwT22aGUwaLbcs2nSN5p0k5lFRqbypnfqsi5FEIX_Nx02puP8CjyYnyRxIkc0aHRBDMcCnACCjgQy-bZ0MjVGkXf4gG88cGGfj4Cfdwx26XQoxl9q2tgmCFgTQxye95EDo4ilTkoiESdhmBQueEXf8XU-7miaO82E2bFmHHKlzkcUSIyNy8s3SD9fwLADooMCKF0x9urxYKmzTe75oAJbpcD27MO0VRTVWy-_I2usHQrObv5407XEmq6efJVslvCS1T4AWgRKjRcU4kHfO-Phv96O-JONwhF25IIVL2gwfaWGy3RWpmgKf430-QnFiB63EmokuDeAWQwGPaiW2LHBmF6JD3mZvcIcsmhyQf2YuxS3vGS3chzXjzbXWIaIcR1p2jFBHty4H5i_DAofCA3zCdLorH9wYDOQImxnr3mRPjuIDyydzV3ewZIlgwNkOFr2_rh7i6pHI2vWeWI8v7YN2tKwknulfV5P-cjv4qf4XqImBNHyCBYFNjgLHJphqNjlFpqX8ngDjuTWZumA5C-bF-k9fNpphY-S-I6_fiY1rTffCJypxugWlXjgxxkqvlvv3N5EpxNxMQJlWfcVJMN5zTqKxEeJ9ryLaThLft8SFKl6g5NXv2GPhlPQ2UMO2qIqG_UNNoqyD0e6pXd6oqlNbDqXFBCM0wTXR7mc_ErIY7oXi3-7Rcgxa9R0XZASb2P9B9ZGqM34QzX9DZT8ms66a4bBedLJ_RBxeFXYboTFf1lGo3hoW1Vk1YdB6RKT1WJqVigT73RRxP2AvwPj5kIPX7MbiCwe5VCWi1dxGpkdQnuxVOMIz1HxtwEt6yIrOnvRBp4TjZ1Oj9vJ1HXltdw1nEjaqzgw2CBLDZIOpQ1kjh7oWNt59_p2vny-6A6g15AobI2Ho81_-RIlL7m00]--></g></svg>